<svg width="353" height="63" viewBox="0 0 353 63" fill="none" xmlns="http://www.w3.org/2000/svg">
<path d="M249.568 37.02C248.859 36.292 248.504 35.326 248.504 34.122C248.504 32.918 248.859 31.952 249.568 31.224C250.277 30.496 251.197 30.132 252.326 30.132C253.269 30.132 254.057 30.3607 254.692 30.818C255.327 31.2753 255.751 31.924 255.966 32.764H253.838C253.586 32.12 253.082 31.798 252.326 31.798C251.757 31.798 251.309 32.008 250.982 32.428C250.665 32.8387 250.506 33.4033 250.506 34.122C250.506 34.8407 250.665 35.41 250.982 35.83C251.309 36.2407 251.757 36.446 252.326 36.446C253.073 36.446 253.577 36.1193 253.838 35.466H255.966C255.742 36.278 255.308 36.922 254.664 37.398C254.029 37.874 253.25 38.112 252.326 38.112C251.197 38.112 250.277 37.748 249.568 37.02ZM260.889 36.446C261.439 36.446 261.911 36.2453 262.303 35.844C262.704 35.4333 262.905 34.8593 262.905 34.122C262.905 33.3753 262.709 32.8013 262.317 32.4C261.925 31.9987 261.449 31.798 260.889 31.798C260.338 31.798 259.871 31.9987 259.489 32.4C259.106 32.8013 258.915 33.3753 258.915 34.122C258.915 34.8687 259.106 35.4427 259.489 35.844C259.871 36.2453 260.338 36.446 260.889 36.446ZM258.047 37.006C257.291 36.2687 256.913 35.3027 256.913 34.108C256.913 32.9133 257.295 31.952 258.061 31.224C258.826 30.496 259.773 30.132 260.903 30.132C262.041 30.132 262.993 30.496 263.759 31.224C264.524 31.952 264.907 32.9133 264.907 34.108C264.907 35.3027 264.519 36.2687 263.745 37.006C262.979 37.7433 262.027 38.112 260.889 38.112C259.75 38.112 258.803 37.7433 258.047 37.006ZM271.914 35.788C272.325 35.3773 272.53 34.8173 272.53 34.108C272.53 33.3987 272.325 32.8433 271.914 32.442C271.513 32.0407 271.037 31.84 270.486 31.84C269.935 31.84 269.455 32.0453 269.044 32.456C268.643 32.8573 268.442 33.4127 268.442 34.122C268.442 34.8313 268.643 35.3913 269.044 35.802C269.455 36.2033 269.935 36.404 270.486 36.404C271.037 36.404 271.513 36.1987 271.914 35.788ZM268.442 31.448C268.993 30.5707 269.8 30.132 270.864 30.132C271.928 30.132 272.805 30.5053 273.496 31.252C274.187 31.9893 274.532 32.946 274.532 34.122C274.532 35.2887 274.187 36.2453 273.496 36.992C272.805 37.7387 271.933 38.112 270.878 38.112C269.833 38.112 269.021 37.6407 268.442 36.698V41.696H266.468V30.244H268.442V31.448ZM278.165 37.86L275.127 30.244H277.339L279.313 35.76L281.399 30.244H283.457L278.613 41.668H276.555L278.165 37.86ZM286.585 30.244V31.616C287.107 30.6267 287.863 30.132 288.853 30.132V32.148H288.363C287.775 32.148 287.331 32.2973 287.033 32.596C286.734 32.8853 286.585 33.3893 286.585 34.108V38H284.611V30.244H286.585ZM292.441 28.27C292.441 28.606 292.324 28.8907 292.091 29.124C291.858 29.3573 291.573 29.474 291.237 29.474C290.91 29.474 290.63 29.3573 290.397 29.124C290.164 28.8907 290.047 28.606 290.047 28.27C290.047 27.934 290.164 27.6493 290.397 27.416C290.63 27.1827 290.91 27.066 291.237 27.066C291.573 27.066 291.858 27.1827 292.091 27.416C292.324 27.6493 292.441 27.934 292.441 28.27ZM290.257 38V30.244H292.231V38H290.257ZM294.821 36.992C294.131 36.236 293.785 35.2747 293.785 34.108C293.785 32.9413 294.131 31.9893 294.821 31.252C295.512 30.5053 296.389 30.132 297.453 30.132C298.517 30.132 299.329 30.5707 299.889 31.448V30.244H301.849V38.056C301.849 39.1667 301.523 40.072 300.869 40.772C300.216 41.4813 299.297 41.836 298.111 41.836C296.935 41.836 295.997 41.5887 295.297 41.094C294.607 40.6087 294.215 39.9133 294.121 39.008H296.053C296.175 39.3533 296.408 39.624 296.753 39.82C297.099 40.0253 297.533 40.128 298.055 40.128C298.578 40.128 299.012 39.9553 299.357 39.61C299.712 39.2647 299.889 38.7467 299.889 38.056V36.698C299.301 37.6407 298.485 38.112 297.439 38.112C296.394 38.112 295.521 37.7387 294.821 36.992ZM299.273 35.802C299.684 35.3913 299.889 34.8313 299.889 34.122C299.889 33.4127 299.684 32.8573 299.273 32.456C298.863 32.0453 298.382 31.84 297.831 31.84C297.281 31.84 296.8 32.0407 296.389 32.442C295.988 32.8433 295.787 33.3987 295.787 34.108C295.787 34.8173 295.993 35.3773 296.403 35.788C296.814 36.1987 297.29 36.404 297.831 36.404C298.382 36.404 298.863 36.2033 299.273 35.802ZM305.917 27.64V31.406C306.411 30.5567 307.214 30.132 308.325 30.132C309.211 30.132 309.935 30.426 310.495 31.014C311.055 31.5927 311.335 32.4 311.335 33.436V38H309.375V33.716C309.375 33.1093 309.221 32.6473 308.913 32.33C308.605 32.0033 308.185 31.84 307.653 31.84C307.121 31.84 306.696 32.0033 306.379 32.33C306.071 32.6473 305.917 33.1093 305.917 33.716V38H303.943V27.64H305.917ZM316.373 36.348H317.311V38H316.065C315.271 38 314.66 37.818 314.231 37.454C313.801 37.09 313.587 36.488 313.587 35.648V31.854H312.761V30.244H313.587V28.326H315.561V30.244H317.297V31.854H315.561V35.648C315.561 35.9 315.621 36.082 315.743 36.194C315.864 36.2967 316.074 36.348 316.373 36.348ZM322.636 37.86V36.418C322.879 36.2033 323.252 35.8813 323.756 35.452C324.26 35.0133 324.638 34.682 324.89 34.458C325.142 34.234 325.45 33.94 325.814 33.576C326.188 33.2027 326.463 32.89 326.64 32.638C327.098 31.9847 327.326 31.406 327.326 30.902C327.326 29.9127 326.869 29.418 325.954 29.418C325.506 29.418 325.156 29.5673 324.904 29.866C324.652 30.1647 324.522 30.5753 324.512 31.098H322.608C322.618 30.006 322.935 29.1753 323.56 28.606C324.195 28.0367 325.021 27.752 326.038 27.752C327.056 27.752 327.854 28.0413 328.432 28.62C329.011 29.1987 329.3 29.9267 329.3 30.804C329.3 31.4573 329.132 32.064 328.796 32.624C328.628 32.9227 328.465 33.1887 328.306 33.422C328.148 33.646 327.919 33.9073 327.62 34.206C327.331 34.5047 327.102 34.738 326.934 34.906C326.766 35.074 326.51 35.312 326.164 35.62C325.828 35.9187 325.595 36.1287 325.464 36.25H329.538V37.86H322.636ZM330.773 32.904C330.773 29.516 332.029 27.822 334.539 27.822C337.059 27.822 338.319 29.516 338.319 32.904C338.319 36.2827 337.059 37.972 334.539 37.972C332.029 37.972 330.773 36.2827 330.773 32.904ZM335.379 29.824C335.146 29.7027 334.871 29.642 334.553 29.642C334.236 29.642 333.961 29.7027 333.727 29.824C333.494 29.9453 333.312 30.0993 333.181 30.286C333.06 30.4727 332.962 30.72 332.887 31.028C332.813 31.3267 332.761 31.616 332.733 31.896C332.715 32.176 332.705 32.5073 332.705 32.89C332.705 33.2727 332.715 33.604 332.733 33.884C332.761 34.164 332.813 34.458 332.887 34.766C332.962 35.0647 333.06 35.312 333.181 35.508C333.312 35.6947 333.494 35.8487 333.727 35.97C333.961 36.0913 334.236 36.152 334.553 36.152C334.871 36.152 335.146 36.0913 335.379 35.97C335.613 35.8487 335.79 35.6947 335.911 35.508C336.042 35.312 336.145 35.0647 336.219 34.766C336.294 34.458 336.341 34.164 336.359 33.884C336.387 33.604 336.401 33.2727 336.401 32.89C336.401 32.5073 336.387 32.176 336.359 31.896C336.341 31.616 336.294 31.3267 336.219 31.028C336.145 30.72 336.042 30.4727 335.911 30.286C335.79 30.0993 335.613 29.9453 335.379 29.824ZM339.726 37.86V36.418C339.969 36.2033 340.342 35.8813 340.846 35.452C341.35 35.0133 341.728 34.682 341.98 34.458C342.232 34.234 342.54 33.94 342.904 33.576C343.277 33.2027 343.553 32.89 343.73 32.638C344.187 31.9847 344.416 31.406 344.416 30.902C344.416 29.9127 343.959 29.418 343.044 29.418C342.596 29.418 342.246 29.5673 341.994 29.866C341.742 30.1647 341.611 30.5753 341.602 31.098H339.698C339.707 30.006 340.025 29.1753 340.65 28.606C341.285 28.0367 342.111 27.752 343.128 27.752C344.145 27.752 344.943 28.0413 345.522 28.62C346.101 29.1987 346.39 29.9267 346.39 30.804C346.39 31.4573 346.222 32.064 345.886 32.624C345.718 32.9227 345.555 33.1887 345.396 33.422C345.237 33.646 345.009 33.9073 344.71 34.206C344.421 34.5047 344.192 34.738 344.024 34.906C343.856 35.074 343.599 35.312 343.254 35.62C342.918 35.9187 342.685 36.1287 342.554 36.25H346.628V37.86H339.726ZM349.123 38V29.866H347.639V28.06H351.139V38H349.123Z" fill="black"/>
<circle cx="31.5" cy="31.5" r="31.5" fill="#01BDCB"/>
<path d="M19.9158 27.2387H24.1342V39.69H28.5795V27.2387H32.8434V23.7006H19.9158V27.2387Z" fill="#26264F"/>
<path d="M38.9333 34.1334C38.9333 32.1829 39.9539 31.5933 41.791 31.5933H43.0384V26.8531C41.3374 26.8531 39.8859 27.8284 38.9333 29.2119V26.9665H34.488V39.69H38.9333V34.1334Z" fill="#26264F"/>
<path d="M43.9062 33.3169C43.9062 37.3767 46.3103 39.8488 49.3268 39.8488C51.1185 39.8488 52.4112 39.055 53.069 37.921V39.69H57.5142V26.9665H53.069V28.7356C52.4112 27.6016 51.1412 26.8078 49.3268 26.8078C46.3103 26.8078 43.9062 29.2572 43.9062 33.3169ZM53.069 33.3169C53.069 35.0406 52.003 35.9705 50.7556 35.9705C49.4855 35.9705 48.4422 35.0179 48.4422 33.3169C48.4422 31.5933 49.4855 30.6861 50.7556 30.6861C52.003 30.6861 53.069 31.6159 53.069 33.3169Z" fill="#26264F"/>
<path d="M59.3215 33.3169C59.3215 37.3767 61.9751 39.8488 65.7627 39.8488C68.9832 39.8488 71.3419 37.9663 71.977 34.8138H67.2595C67.0101 35.6076 66.5111 36.0612 65.6719 36.0612C64.5833 36.0612 63.8575 35.154 63.8575 33.3169C63.8575 31.5025 64.5833 30.5953 65.6719 30.5953C66.5111 30.5953 67.0101 31.0716 67.2595 31.8427H71.977C71.3419 28.6449 68.9832 26.8078 65.7627 26.8078C61.9751 26.8078 59.3215 29.2799 59.3215 33.3169Z" fill="#26264F"/>
<path d="M73.8236 39.69H78.2689V34.4736L81.7843 39.69H87.2048L82.1018 33.3623L87.1141 26.9665H81.7843L78.2689 31.9561V22.9068H73.8236V39.69Z" fill="#26264F"/>
<path d="M88.508 39.69H92.9533V26.9665H88.508V39.69ZM90.7534 25.7872C92.3183 25.7872 93.3389 24.7893 93.3389 23.5192C93.3389 22.2264 92.3183 21.2058 90.7534 21.2058C89.1658 21.2058 88.1452 22.2264 88.1452 23.5192C88.1452 24.7893 89.1658 25.7872 90.7534 25.7872Z" fill="#26264F"/>
<path d="M104.149 39.69H108.594V32.2737C108.594 28.9397 106.757 26.8531 103.808 26.8531C102.017 26.8531 100.679 27.6923 99.9301 28.7809V26.9665H95.4848V39.69H99.9301V32.8633C99.9301 31.3891 100.747 30.5273 102.062 30.5273C103.332 30.5273 104.149 31.3891 104.149 32.8633V39.69Z" fill="#26264F"/>
<path d="M110.307 33.3169C110.307 37.3767 112.711 39.8488 115.728 39.8488C117.519 39.8488 118.812 39.055 119.47 37.921V39.5539C119.47 41.5271 118.449 42.0941 117.202 42.0941C116.068 42.0941 115.297 41.6178 115.115 40.8013H110.738C111.056 43.9539 113.505 45.9497 117.474 45.9497C122.055 45.9497 123.915 42.9559 123.915 39.5539V26.9665H119.47V28.7356C118.812 27.6016 117.519 26.8078 115.728 26.8078C112.711 26.8078 110.307 29.2572 110.307 33.3169ZM119.47 33.3169C119.47 35.0406 118.404 35.9705 117.157 35.9705C115.887 35.9705 114.843 35.0179 114.843 33.3169C114.843 31.5933 115.887 30.6861 117.157 30.6861C118.404 30.6861 119.47 31.6159 119.47 33.3169Z" fill="#26264F"/>
<path d="M141.018 23.7006H130.789V39.69H141.018V36.1293H135.235V33.2489H140.338V29.8696H135.235V27.2614H141.018V23.7006Z" fill="#26264F"/>
<path d="M151.153 39.69H156.142L151.652 33.453L155.984 26.9665H151.107L149.27 30.1644L146.98 26.9665H141.99L146.413 33.0901L142.171 39.69H147.048L148.862 36.4921L151.153 39.69Z" fill="#26264F"/>
<path d="M161.901 28.7356V26.9665H157.456V45.7682H161.901V37.921C162.582 39.0323 163.829 39.8488 165.621 39.8488C168.66 39.8488 171.041 37.3767 171.041 33.3169C171.041 29.2572 168.66 26.8078 165.621 26.8078C163.852 26.8078 162.559 27.6016 161.901 28.7356ZM166.528 33.3169C166.528 35.0179 165.462 35.9705 164.215 35.9705C162.967 35.9705 161.901 35.0406 161.901 33.3169C161.901 31.6159 162.967 30.6861 164.215 30.6861C165.462 30.6861 166.528 31.5933 166.528 33.3169Z" fill="#26264F"/>
<path d="M177.317 34.1334C177.317 32.1829 178.337 31.5933 180.174 31.5933H181.422V26.8531C179.721 26.8531 178.269 27.8284 177.317 29.2119V26.9665H172.871V39.69H177.317V34.1334Z" fill="#26264F"/>
<path d="M188.731 30.3232C189.751 30.3232 190.636 30.9355 190.636 32.0695H186.712C186.916 30.9129 187.665 30.3232 188.731 30.3232ZM194.9 35.2901H190.16C189.91 35.8117 189.434 36.288 188.572 36.288C187.574 36.288 186.78 35.6983 186.69 34.2241H195.104C195.149 33.8839 195.172 33.5211 195.172 33.1809C195.172 29.2345 192.518 26.8078 188.753 26.8078C184.943 26.8078 182.29 29.2799 182.29 33.3169C182.29 37.3767 184.989 39.8488 188.753 39.8488C191.929 39.8488 194.31 37.8983 194.9 35.2901Z" fill="#26264F"/>
<path d="M207.696 35.9478C207.673 31.117 200.892 32.5685 200.892 30.7541C200.892 30.2778 201.278 29.983 202.003 29.983C202.956 29.983 203.523 30.4593 203.659 31.2531H207.673C207.379 28.7356 205.564 26.8078 202.094 26.8078C198.647 26.8078 196.81 28.6449 196.81 30.8675C196.81 35.5396 203.568 34.02 203.568 35.8798C203.568 36.3334 203.137 36.6963 202.389 36.6963C201.459 36.6963 200.756 36.2427 200.643 35.4035H196.333C196.515 37.9437 198.874 39.8488 202.412 39.8488C205.7 39.8488 207.696 38.1705 207.696 35.9478Z" fill="#26264F"/>
<path d="M220.586 35.9478C220.564 31.117 213.782 32.5685 213.782 30.7541C213.782 30.2778 214.168 29.983 214.894 29.983C215.846 29.983 216.413 30.4593 216.549 31.2531H220.564C220.269 28.7356 218.455 26.8078 214.984 26.8078C211.537 26.8078 209.7 28.6449 209.7 30.8675C209.7 35.5396 216.459 34.02 216.459 35.8798C216.459 36.3334 216.028 36.6963 215.279 36.6963C214.349 36.6963 213.646 36.2427 213.533 35.4035H209.224C209.405 37.9437 211.764 39.8488 215.302 39.8488C218.591 39.8488 220.586 38.1705 220.586 35.9478Z" fill="#26264F"/>
</svg>
