<svg width="31" height="31" viewBox="0 0 31 31" fill="none" xmlns="http://www.w3.org/2000/svg">
<g clip-path="url(#clip0)">
<path d="M13.6517 0C6.12438 0 0 6.12438 0 13.6517C0 21.1795 6.12438 27.3035 13.6517 27.3035C21.1795 27.3035 27.3035 21.1795 27.3035 13.6517C27.3035 6.12438 21.1795 0 13.6517 0ZM13.6517 24.7832C7.51393 24.7832 2.52032 19.7896 2.52032 13.6518C2.52032 7.51399 7.51393 2.52032 13.6517 2.52032C19.7896 2.52032 24.7832 7.51393 24.7832 13.6517C24.7832 19.7896 19.7896 24.7832 13.6517 24.7832Z" fill="white"/>
<path d="M30.631 28.8489L23.406 21.624C22.9137 21.1317 22.1164 21.1317 21.6241 21.624C21.1318 22.1158 21.1318 22.914 21.6241 23.4059L28.8491 30.6308C29.0952 30.8769 29.4174 31 29.74 31C30.0622 31 30.3848 30.8769 30.631 30.6308C31.1233 30.1389 31.1233 29.3408 30.631 28.8489Z" fill="white"/>
</g>
<defs>
<clipPath id="clip0">
<rect width="31" height="31" fill="white"/>
</clipPath>
</defs>
</svg>
