<svg width="398" height="389" viewBox="0 0 398 389" fill="none" xmlns="http://www.w3.org/2000/svg">
<g clip-path="url(#clip0)">
<path d="M276.798 7.97696C248.559 1.67023 219.199 -1.34952 190.493 0.574566C165.043 2.28487 136.204 6.94811 115.732 23.6503C105.977 31.6139 94.3394 45.9109 91.1498 58.5244C91.1498 58.5244 74.348 124.932 40.7576 139.149C7.15384 153.379 -16.174 396.215 238.617 372.498C238.617 372.498 388.272 366.285 397.28 187.291C399.455 144.053 398.241 96.5118 372.164 60.3549C352.173 32.6561 324.174 20.3366 292.011 11.7182C286.98 10.3687 281.909 9.12607 276.798 7.97696Z" fill="#F4F7FA"/>
<path d="M135.629 31.1461V217.155L118.814 211.516V48.8103L134.108 32.7496L135.443 31.3466L135.629 31.1461Z" fill="#97A6B7"/>
<path d="M135.629 30.9725H182.352V217.155H135.629V30.9725Z" fill="white"/>
<path opacity="0.3" d="M144.517 51.5362H150.456V204.929H144.517V51.5362Z" fill="#97A6B7"/>
<path opacity="0.3" d="M156.889 51.5362H163.068V204.929H156.889V51.5362Z" fill="#97A6B7"/>
<path opacity="0.3" d="M169.246 51.5362H175.425V204.929H169.246V51.5362Z" fill="#97A6B7"/>
<path opacity="0.5" d="M148.481 51.5362H150.456V204.929H148.481V51.5362Z" fill="#97A6B7"/>
<path opacity="0.5" d="M161.093 51.5362H163.068V204.929H161.093V51.5362Z" fill="#97A6B7"/>
<path opacity="0.5" d="M173.704 51.5362H175.679V204.929H173.704V51.5362Z" fill="#97A6B7"/>
<path opacity="0.1" d="M182.352 217.141L135.629 217.155L118.814 211.516V192.596C126.595 171.524 124.032 162.759 125.714 147.126C127.355 131.867 123.885 51.456 134.095 32.7629C134.468 32.0815 134.842 31.4802 135.256 30.9725C135.309 31.1061 135.376 31.2263 135.429 31.36C135.496 31.5069 135.563 31.6539 135.616 31.7875C140.927 43.7329 143.356 49.4384 144.517 55.4912C145.638 61.3971 145.558 67.6504 145.745 80.3441C145.972 95.9639 145.932 109.553 148.481 118.906C149.015 120.884 149.669 122.661 150.456 124.224C151.991 127.284 154.073 129.555 156.889 130.891C157.196 131.038 157.516 131.185 157.849 131.306C158.944 131.72 160.025 132.361 161.092 133.216C161.76 133.751 162.414 134.352 163.067 135.047C165.256 137.359 167.338 140.525 169.246 144.373C170.861 147.62 172.356 151.362 173.69 155.464C174.304 157.348 174.878 159.299 175.425 161.329C175.505 161.637 175.585 161.958 175.679 162.265C178.708 173.956 180.497 187.826 180.336 201.936C180.27 208.096 181.044 213.039 182.352 217.141Z" fill="#97A6B7"/>
<path d="M165.63 123.102V217.155L152.418 214.295V132.027L164.442 123.903L165.483 123.195L165.63 123.102Z" fill="#97A6B7"/>
<path d="M165.63 123.008H202.37V217.155H165.63V123.008Z" fill="#F4F7FA"/>
<path d="M172.623 133.403H177.293V210.968H172.623V133.403Z" fill="#97A6B7"/>
<path d="M182.352 133.403H187.209V210.968H182.352V133.403Z" fill="#97A6B7"/>
<path d="M192.067 133.403H196.925V210.968H192.067V133.403Z" fill="#97A6B7"/>
<path opacity="0.5" d="M175.732 133.403H177.293V210.968H175.732V133.403Z" fill="#97A6B7"/>
<path opacity="0.5" d="M185.648 133.403H187.209V210.968H185.648V133.403Z" fill="#97A6B7"/>
<path opacity="0.5" d="M195.564 133.403H197.125V210.968H195.564V133.403Z" fill="#97A6B7"/>
<path opacity="0.1" d="M202.37 217.141H165.63L152.418 214.295V204.728C158.543 194.066 156.528 189.643 157.849 181.733C159.144 174.01 156.421 133.35 164.442 123.903C164.736 123.556 165.029 123.262 165.349 122.995C165.389 123.062 165.443 123.128 165.483 123.195C165.536 123.262 165.59 123.342 165.63 123.409C169.807 129.448 171.715 132.335 172.623 135.394C173.503 138.387 173.437 141.541 173.584 147.968C173.757 155.865 173.73 162.733 175.732 167.463C176.146 168.465 176.666 169.36 177.294 170.148C178.508 171.698 180.136 172.847 182.352 173.515C182.592 173.596 182.845 173.662 183.112 173.729C183.98 173.943 184.82 174.264 185.661 174.691C186.182 174.958 186.702 175.266 187.223 175.613C188.944 176.776 190.572 178.379 192.08 180.33C193.348 181.973 194.523 183.857 195.577 185.942C196.057 186.891 196.511 187.879 196.938 188.908C197.005 189.068 197.072 189.229 197.138 189.389C199.514 195.308 200.928 202.31 200.808 209.458C200.741 212.572 201.342 215.07 202.37 217.141Z" fill="#97A6B7"/>
<path d="M104.308 78.0458H160.679V217.155H104.308V78.0458Z" fill="url(#paint0_linear)"/>
<path opacity="0.3" d="M108.578 91.2472H156.395V99.9591H108.578V91.2472Z" fill="#97A6B7"/>
<path opacity="0.3" d="M108.578 106.707H156.395V115.419H108.578V106.707Z" fill="#97A6B7"/>
<path opacity="0.3" d="M108.578 122.166H156.395V130.878H108.578V122.166Z" fill="#97A6B7"/>
<path opacity="0.3" d="M108.578 137.626H156.395V146.338H108.578V137.626Z" fill="#97A6B7"/>
<path opacity="0.3" d="M108.578 153.072H156.395V161.784H108.578V153.072Z" fill="#97A6B7"/>
<path opacity="0.3" d="M108.578 168.531H156.395V177.243H108.578V168.531Z" fill="#97A6B7"/>
<path opacity="0.3" d="M108.578 183.991H156.395V192.703H108.578V183.991Z" fill="#97A6B7"/>
<path d="M104.308 78.0458V217.155H89.1472V91.2472L103.867 78.42L104.241 78.0993L104.308 78.0458Z" fill="#97A6B7"/>
<path opacity="0.5" d="M84.4762 112.332H93.8047V114.296H84.4762V112.332Z" fill="#97A6B7"/>
<path opacity="0.5" d="M84.4762 136.771H93.8047V138.735H84.4762V136.771Z" fill="#97A6B7"/>
<path opacity="0.5" d="M84.4762 161.223H93.8047V163.187H84.4762V161.223Z" fill="#97A6B7"/>
<path opacity="0.5" d="M84.4762 185.675H93.8047V187.639H84.4762V185.675Z" fill="#97A6B7"/>
<path opacity="0.5" d="M108.578 91.2472H156.395V92.9308H108.578V91.2472Z" fill="#97A6B7"/>
<path opacity="0.5" d="M108.578 106.707H156.395V108.39H108.578V106.707Z" fill="#97A6B7"/>
<path opacity="0.5" d="M108.578 122.166H156.395V123.85H108.578V122.166Z" fill="#97A6B7"/>
<path opacity="0.5" d="M108.578 137.626H156.395V139.309H108.578V137.626Z" fill="#97A6B7"/>
<path opacity="0.5" d="M108.578 153.072H156.395V154.756H108.578V153.072Z" fill="#97A6B7"/>
<path opacity="0.5" d="M108.578 168.531H156.395V170.215H108.578V168.531Z" fill="#97A6B7"/>
<path opacity="0.5" d="M108.578 183.991H156.395V185.675H108.578V183.991Z" fill="#97A6B7"/>
<path opacity="0.1" d="M158.81 217.155H104.308L89.1473 212.946V185.995C89.7479 184.312 90.3885 182.722 91.0691 181.252C97.4615 167.516 95.3796 161.931 96.7142 151.883C98.0354 141.955 95.1528 88.7352 103.867 78.4333C103.987 78.2997 104.094 78.1661 104.214 78.0458C104.228 78.0592 104.228 78.0859 104.241 78.0993C104.268 78.1394 104.281 78.1795 104.308 78.2062C107.751 84.4595 109.686 88.0671 110.807 91.2472C111.007 91.8218 111.181 92.383 111.327 92.9308C111.901 95.042 112.141 97.1531 112.262 99.9591C112.342 101.83 112.382 104.008 112.422 106.707C112.435 107.241 112.435 107.802 112.448 108.39C112.448 108.724 112.462 109.072 112.462 109.419C112.502 111.477 112.528 113.481 112.569 115.405C112.609 117.757 112.675 120.015 112.795 122.153C112.822 122.727 112.862 123.289 112.902 123.836C113.089 126.389 113.356 128.74 113.796 130.865C114.343 133.524 115.158 135.795 116.359 137.612C116.772 138.227 117.226 138.788 117.733 139.296C118.868 140.432 120.269 141.287 121.977 141.808C124.139 142.463 126.248 144.039 128.209 146.324C129.784 148.155 131.252 150.426 132.587 153.072C132.867 153.62 133.134 154.181 133.401 154.756C134.388 156.92 135.296 159.272 136.083 161.784C136.764 163.922 137.351 166.193 137.858 168.531C137.978 169.093 138.085 169.654 138.205 170.215C138.645 172.5 138.992 174.852 139.233 177.243C139.459 179.461 139.606 181.72 139.646 183.991C139.66 184.552 139.66 185.113 139.66 185.675C139.66 186.022 139.66 186.369 139.646 186.717C139.62 188.948 139.806 190.926 140.153 192.703C142.983 206.773 156.542 207.868 158.81 217.155Z" fill="#97A6B7"/>
<path opacity="0.5" d="M59.7739 112.132H69.3025V114.096H59.7739V112.132Z" fill="#97A6B7"/>
<path opacity="0.5" d="M59.7739 136.584H69.3025V138.548H59.7739V136.584Z" fill="#97A6B7"/>
<path opacity="0.5" d="M59.7739 161.036H69.3025V163H59.7739V161.036Z" fill="#97A6B7"/>
<path d="M50.0718 98.8367V217.155L34.9114 213.561V110.074L50.0718 98.8367Z" fill="#97A6B7"/>
<path d="M50.0719 99.1173H97.5015V217.155H50.0719V99.1173Z" fill="white"/>
<g opacity="0.3">
<path opacity="0.3" d="M58.6262 113.174H67.9546V131.72H58.6262V113.174Z" fill="#97A6B7"/>
<path opacity="0.3" d="M71.4514 113.174H80.98V131.72H71.4514V113.174Z" fill="#97A6B7"/>
<path opacity="0.3" d="M84.4762 113.174H93.8047V131.72H84.4762V113.174Z" fill="#97A6B7"/>
<path opacity="0.3" d="M58.6262 137.626H67.9546V156.172H58.6262V137.626Z" fill="#97A6B7"/>
<path opacity="0.3" d="M71.4514 137.626H80.98V156.172H71.4514V137.626Z" fill="#97A6B7"/>
<path opacity="0.3" d="M84.4762 137.626H93.8047V156.172H84.4762V137.626Z" fill="#97A6B7"/>
<path opacity="0.3" d="M58.6262 162.064H67.9546V180.61H58.6262V162.064Z" fill="#97A6B7"/>
<path opacity="0.3" d="M71.4514 162.064H80.98V180.61H71.4514V162.064Z" fill="#97A6B7"/>
<path opacity="0.3" d="M84.4762 162.064H93.8047V180.61H84.4762V162.064Z" fill="#97A6B7"/>
<path opacity="0.3" d="M58.6262 186.516H67.9546V205.062H58.6262V186.516Z" fill="#97A6B7"/>
<path opacity="0.3" d="M71.4514 186.516H80.98V205.062H71.4514V186.516Z" fill="#97A6B7"/>
<path opacity="0.3" d="M84.4762 186.516H93.8047V205.062H84.4762V186.516Z" fill="#97A6B7"/>
</g>
<path opacity="0.5" d="M58.6262 113.174H67.9546V115.138H58.6262V113.174Z" fill="#97A6B7"/>
<path opacity="0.5" d="M58.6262 137.626H67.9546V139.59H58.6262V137.626Z" fill="#97A6B7"/>
<path opacity="0.5" d="M58.6262 162.064H67.9546V164.029H58.6262V162.064Z" fill="#97A6B7"/>
<path opacity="0.5" d="M58.6262 186.516H67.9546V188.48H58.6262V186.516Z" fill="#97A6B7"/>
<path opacity="0.1" d="M97.5015 215.191V217.155H50.0719L34.9115 213.574V196.057C35.9258 192.315 37.1535 188.681 38.6082 185.675C44.1866 174.157 42.3716 169.467 43.5326 161.036C44.6937 152.604 42.1047 106.894 50.0719 99.1173C57.5186 112.132 57.0115 111.57 57.2651 125.44C57.3985 132.856 57.3985 139.416 58.6263 144.28C59.6939 148.516 61.7091 151.469 65.5659 152.604C66.38 152.845 67.1807 153.219 67.9681 153.727C70.477 155.343 72.8391 158.256 74.8276 162.064C77.4566 167.048 79.4718 173.555 80.406 180.61C80.6595 182.535 80.8464 184.512 80.9265 186.516C80.9532 187.184 80.9798 187.853 80.9798 188.521C80.9932 189.109 80.9932 189.683 80.9798 190.271C80.9798 190.471 80.9798 190.672 80.9798 190.872C81.0199 195.91 82.4612 199.384 84.4763 202.056C85.3304 203.192 86.2913 204.167 87.3056 205.062C91.3225 208.643 96.0468 210.808 97.5015 215.191Z" fill="#97A6B7"/>
<path d="M230.889 177.47C222.361 171.698 210.764 161.957 203.784 146.672C194.616 126.629 201.436 114.657 194.79 79.3018C190.586 56.9477 187.436 41.3813 174.785 34.8206C164.869 29.6764 150.323 30.6785 142.582 38.1611C136.15 44.3876 133.694 55.8119 133.641 63.7087C133.601 70.1357 135.162 74.5451 132.093 78.42C128.943 82.3884 124.659 81.1057 121.617 84.1655C115.438 90.352 122.177 106.466 123.258 109.072C135.362 138.053 166.364 153.94 179.963 160.701C191.213 166.287 208.375 173.395 230.889 177.47Z" fill="url(#paint1_linear)"/>
<g opacity="0.5">
<g opacity="0.5">
<path opacity="0.5" d="M240.231 181.773L240.404 180.958C216.409 175.987 185.581 164.763 174.985 139.59C171.088 130.33 170.327 120.215 169.273 106.199C168.432 95.0152 168.846 86.9982 169.206 79.9432C169.687 70.6969 170.06 63.4014 167.365 53.3133C164.642 43.0782 159.558 33.2974 152.271 24.2248L151.617 24.7459C158.837 33.725 163.855 43.4122 166.564 53.5271C169.22 63.4815 168.846 70.7236 168.379 79.9031C168.019 86.9982 167.605 95.0286 168.446 106.266C169.473 119.828 170.274 130.544 174.224 139.924C179.282 151.923 189.411 161.917 204.358 169.64C214.434 174.852 226.512 178.927 240.231 181.773Z" fill="white"/>
</g>
<g opacity="0.5">
<path opacity="0.5" d="M168.232 98.5026L168.632 98.2487C168.699 98.2087 175.545 93.7592 181.684 85.0073C187.356 76.9234 193.575 63.4147 191.066 44.9087L190.239 45.0156C192.721 63.2544 186.582 76.5627 181.004 84.5262C175.799 91.9554 170.1 96.2178 168.579 97.2867C159.344 78.313 146.639 67.5168 137.564 61.7846C127.649 55.5313 119.815 53.7943 119.735 53.7809L119.561 54.596C119.641 54.6093 127.368 56.3196 137.164 62.5061C146.199 68.2116 158.89 79.0212 168.045 98.0751L168.232 98.5026Z" fill="white"/>
</g>
<g opacity="0.5">
<path opacity="0.5" d="M171.475 128.647L171.609 128.379C171.662 128.259 177.227 116.514 185.101 105.838C192.921 95.229 214.167 88.5749 214.381 88.5081L214.14 87.7064C213.26 87.9736 192.414 94.5209 184.434 105.344C177.187 115.178 171.889 125.908 170.995 127.751C147.066 124.331 114.183 74.8123 113.85 74.3179L113.156 74.7722C113.236 74.8925 121.63 87.5861 132.894 100.48C148.067 117.85 160.946 127.311 171.182 128.62L171.475 128.647Z" fill="white"/>
</g>
<g opacity="0.5">
<path opacity="0.5" d="M200.595 167.503L200.074 166.861C192.628 157.668 191.773 146.885 197.539 134.833C201.863 125.801 208.469 119.427 208.522 119.36L207.948 118.759C207.881 118.826 201.169 125.306 196.778 134.472C191.08 146.378 191.814 157.521 198.9 166.728C196.057 166.768 186.168 166.701 173.477 164.429C159.611 161.958 139.486 156.252 122.284 143.198L88.8671 117.81L88.36 118.478L121.777 143.866C139.099 157.027 159.384 162.759 173.343 165.258C188.464 167.957 199.647 167.543 199.754 167.543L200.595 167.503Z" fill="white"/>
</g>
</g>
<path d="M204.799 185.073C188.824 188.066 168.032 189.59 146.92 184.258C141.528 182.895 108.231 174.504 109.339 159.806C109.726 154.635 114.063 153.045 114.704 146.124C115.464 137.933 109.873 134.913 104.735 125.801C101.665 120.362 92.6973 104.449 101.172 93.2247C106.229 86.5172 117.293 81.7737 126.448 82.2414C139.873 82.9362 146.559 94.6945 157.529 114.777C167.258 132.588 166.471 137.532 173.69 150.226C179.042 159.673 188.224 172.326 204.799 185.073Z" fill="url(#paint2_linear)"/>
<g opacity="0.5">
<g opacity="0.5">
<path opacity="0.5" d="M207.147 185.568C212.486 186.877 217.917 187.692 223.442 188.026C240.364 189.028 257.46 185.528 274.248 177.658L273.901 176.909C257.233 184.726 240.284 188.187 223.495 187.211C163.441 183.684 130.785 121.993 122.204 103.179C117.333 92.5032 115.665 80.0234 117.226 66.0604L116.399 65.9668C114.824 80.0768 116.519 92.717 121.443 103.527C128.503 119.026 141.074 141.34 160.825 159.579C175.172 172.821 190.692 181.532 207.147 185.568Z" fill="white"/>
</g>
<g opacity="0.5">
<path opacity="0.5" d="M138.806 133.591L138.979 133.257C139.112 133.003 152.845 107.495 141.942 84.0586L141.181 84.406C151.23 106.025 139.98 129.462 138.419 132.522C100.638 116.554 96.4339 91.3007 96.0469 83.925C96.0335 83.7246 96.0202 83.5909 96.0202 83.5509L95.2061 83.6978C95.2061 83.7379 95.2194 83.8315 95.2194 83.9784C95.6065 91.5011 99.877 117.303 138.445 133.457L138.806 133.591Z" fill="white"/>
</g>
<g opacity="0.5">
<path opacity="0.5" d="M121.844 162.278C130.718 164.456 143.77 165.097 160.906 159.339L161.119 159.272L161.172 159.058C161.226 158.844 166.844 137.532 160.025 111.143L153.165 84.5664L152.365 84.7801L159.224 111.357C165.617 136.103 160.986 156.346 160.425 158.63C140.327 165.338 125.967 163.147 117.453 160.114C108.231 156.827 103.721 151.896 103.681 151.856L103.067 152.417C103.253 152.631 107.751 157.548 117.173 160.902C118.574 161.383 120.135 161.864 121.844 162.278Z" fill="white"/>
</g>
</g>
<path d="M157.863 278.258C157.863 281.345 160.198 283.964 163.094 284.111L346.874 293.664C350.25 293.838 352.986 291.272 352.986 287.932V14.9385C352.986 11.598 350.25 9.05929 346.874 9.25972L344.418 9.1261L163.107 20.4836C160.211 20.6573 157.876 23.3029 157.876 26.3895V278.258H157.863Z" fill="#97A6B7"/>
<path d="M154.246 278.124C154.246 281.211 156.581 283.83 159.477 283.977L343.257 293.53C346.633 293.704 349.369 291.139 349.369 287.798V14.8182C349.369 11.4778 346.633 8.93903 343.257 9.13945L159.477 20.3633C156.581 20.537 154.246 23.1826 154.246 26.2692V278.124Z" fill="#D8DEE8"/>
<path d="M295.574 34.8073C300.138 40.6865 300.792 51.7901 292.958 56.3732C275.996 66.822 253.803 63.5618 237.495 52.4582C225.484 44.0403 230.595 28.4471 234.038 15.8203L270.178 13.6156C273.287 22.3008 289.849 27.1511 295.574 34.8073Z" fill="#D8DEE8"/>
<path d="M162.894 267.194C162.894 269.92 164.976 272.232 167.538 272.352L333.942 280.155C336.891 280.289 339.293 278.031 339.293 275.091V41.4214C339.293 38.4818 336.891 36.2237 333.942 36.3707L167.538 44.7618C164.976 44.8955 162.894 47.207 162.894 49.9328V267.194Z" fill="white"/>
<path d="M208.508 37.3327C208.762 35.903 209.87 34.8875 211.284 34.8073L220.039 34.3397C224.002 34.1259 226.858 30.8255 226.671 26.67L226.231 17.0496C226.151 15.2725 227.379 13.8428 229.087 13.7359L231.916 13.5622C234.065 13.4286 235.533 11.5045 235.199 9.2597C234.599 5.29127 237.201 1.85731 241.031 1.60343C244.875 1.34956 248.478 4.36931 249.092 8.36447C249.252 9.44677 249.826 10.4623 250.68 11.1838C251.534 11.9053 252.615 12.2661 253.656 12.2126L256.538 12.0389C258.287 11.932 259.955 13.2014 260.422 14.9785L262.931 24.6123C264.012 28.7812 267.949 31.7608 272.059 31.5471L281.267 31.0527C282.776 30.9725 284.257 31.8811 284.964 33.2974L291.583 46.579L291.01 47.3005L206.186 50.6009L208.508 37.3327ZM242.286 9.87434C243.407 9.80753 244.181 8.79204 244.007 7.62957C243.834 6.4671 242.779 5.57187 241.645 5.65204C240.524 5.71885 239.75 6.73434 239.937 7.89681C240.11 9.05928 241.165 9.95451 242.286 9.87434Z" fill="#707C87"/>
<path d="M207.935 38.0542C208.188 36.6245 209.296 35.609 210.711 35.5289L219.465 35.0612C223.429 34.8474 226.285 31.5471 226.098 27.3916L225.658 17.7711C225.577 15.994 226.805 14.5643 228.513 14.4574L231.343 14.2837C233.491 14.1501 234.959 12.226 234.626 9.98123C234.025 6.0128 236.627 2.57883 240.458 2.32496C244.301 2.07109 247.904 5.09084 248.518 9.086C248.678 10.1683 249.252 11.1838 250.106 11.9053C250.96 12.6269 252.041 12.9876 253.082 12.9342L255.965 12.7605C257.713 12.6536 259.381 13.9229 259.848 15.7001L262.357 25.3339C263.438 29.5027 267.375 32.4824 271.486 32.2686L280.694 31.7742C282.202 31.694 283.683 32.6026 284.391 34.019L291.01 47.3005L205.626 51.3358L207.935 38.0542ZM241.725 10.6092C242.846 10.5424 243.62 9.52693 243.447 8.36446C243.273 7.20199 242.219 6.30676 241.085 6.38693C239.964 6.45374 239.19 7.46923 239.377 8.6317C239.55 9.79417 240.591 10.676 241.725 10.6092Z" fill="#97A6B7"/>
<path d="M174.838 118.225C174.838 118.813 175.225 119.267 175.705 119.253L240.764 117.797C241.285 117.784 241.698 117.289 241.698 116.675V103.527C241.698 102.925 241.285 102.444 240.764 102.458L175.705 104.475C175.225 104.489 174.838 104.97 174.838 105.558V118.225Z" fill="#D8DEE8"/>
<path d="M174.838 132.802C174.838 133.39 175.225 133.844 175.705 133.844L240.764 132.949C241.285 132.936 241.698 132.441 241.698 131.84V128.192C241.698 127.591 241.285 127.11 240.764 127.11L175.705 128.219C175.225 128.233 174.838 128.7 174.838 129.288V132.802Z" fill="#D8DEE8"/>
<path d="M174.838 146.151C174.838 146.739 175.225 147.206 175.705 147.193L240.764 146.805C241.285 146.805 241.698 146.311 241.698 145.71V142.062C241.698 141.461 241.285 140.966 240.764 140.98L175.705 141.581C175.225 141.581 174.838 142.062 174.838 142.636V146.151Z" fill="#D8DEE8"/>
<path d="M174.838 159.512C174.838 160.1 175.225 160.568 175.705 160.568L240.764 160.688C241.285 160.688 241.698 160.194 241.698 159.593V155.945C241.698 155.343 241.285 154.849 240.764 154.849L175.705 154.943C175.225 154.943 174.838 155.41 174.838 155.998V159.512Z" fill="#D8DEE8"/>
<path d="M174.838 172.861C174.838 173.449 175.225 173.916 175.705 173.93L240.764 174.558C241.285 174.558 241.698 174.077 241.698 173.475V169.828C241.698 169.226 241.285 168.732 240.764 168.732L175.705 168.318C175.225 168.318 174.838 168.785 174.838 169.36V172.861Z" fill="#D8DEE8"/>
<path d="M264.145 175.333L318.675 175.88C320.717 175.907 322.385 174.063 322.385 171.765V103.607C322.385 101.309 320.717 99.5048 318.675 99.5716L264.145 101.282C262.224 101.349 260.662 103.193 260.662 105.411V171.284C260.662 173.502 262.224 175.319 264.145 175.333Z" fill="#D8DEE8"/>
<path d="M318.795 101.416H318.728L264.199 103.113C263.145 103.14 262.277 104.182 262.277 105.424V171.325C262.277 172.514 263.104 173.502 264.132 173.529L318.661 174.064C319.809 174.077 320.743 173.048 320.743 171.765V103.607C320.743 102.378 319.889 101.416 318.795 101.416ZM318.795 99.572C320.783 99.5854 322.385 101.363 322.385 103.607V171.765C322.385 174.064 320.717 175.908 318.675 175.881L264.145 175.333C264.132 175.333 264.132 175.333 264.119 175.333C262.21 175.306 260.662 173.489 260.662 171.284V105.411C260.662 103.193 262.224 101.349 264.145 101.282L318.675 99.572C318.715 99.572 318.755 99.572 318.795 99.572Z" fill="#D8DEE8"/>
<path d="M286.206 209.231L321.077 209.966C321.304 209.966 321.504 209.766 321.504 209.499V204.314C321.504 204.047 321.317 203.833 321.077 203.833L286.206 203.205C285.979 203.205 285.805 203.406 285.805 203.659V208.75C285.792 209.018 285.979 209.231 286.206 209.231Z" fill="#D8DEE8"/>
<path d="M261.783 220.883L321.077 222.54C321.304 222.54 321.504 222.339 321.504 222.085V216.901C321.504 216.634 321.317 216.42 321.077 216.42L261.783 214.95C261.57 214.95 261.383 215.151 261.383 215.391V220.415C261.383 220.669 261.557 220.869 261.783 220.883Z" fill="#D8DEE8"/>
<path d="M261.783 233.042L321.077 235.1C321.304 235.113 321.504 234.899 321.504 234.645V229.461C321.504 229.194 321.317 228.98 321.077 228.98L261.783 227.109C261.57 227.096 261.383 227.296 261.383 227.55V232.574C261.383 232.828 261.557 233.042 261.783 233.042Z" fill="#D8DEE8"/>
<path d="M261.783 245.201L321.077 247.673C321.304 247.686 321.504 247.473 321.504 247.219V242.034C321.504 241.767 321.317 241.553 321.077 241.54L261.783 239.269C261.57 239.255 261.383 239.456 261.383 239.709V244.733C261.383 244.987 261.557 245.201 261.783 245.201Z" fill="#D8DEE8"/>
<path d="M190.972 207.214L241.311 208.283C241.525 208.283 241.698 208.082 241.698 207.842V202.871C241.698 202.617 241.525 202.417 241.311 202.417L190.972 201.522C190.772 201.522 190.612 201.709 190.612 201.949V206.773C190.612 207.013 190.772 207.214 190.972 207.214Z" fill="#D8DEE8"/>
<path d="M176.066 218.478L241.325 220.308C241.538 220.308 241.712 220.121 241.712 219.867V214.897C241.712 214.643 241.538 214.442 241.325 214.429L176.066 212.812C175.865 212.812 175.705 212.999 175.705 213.24V218.023C175.705 218.277 175.865 218.478 176.066 218.478Z" fill="#D8DEE8"/>
<path d="M176.066 230.062L241.325 232.334C241.538 232.347 241.712 232.147 241.712 231.893V226.922C241.712 226.668 241.538 226.468 241.325 226.455L176.066 224.397C175.865 224.397 175.705 224.584 175.705 224.824V229.608C175.705 229.848 175.865 230.049 176.066 230.062Z" fill="#D8DEE8"/>
<path d="M176.066 241.647L241.325 244.359C241.538 244.373 241.712 244.172 241.712 243.918V238.948C241.712 238.694 241.538 238.494 241.325 238.48L176.066 235.982C175.865 235.968 175.705 236.169 175.705 236.409V241.193C175.705 241.433 175.865 241.633 176.066 241.647Z" fill="#D8DEE8"/>
<path opacity="0.3" d="M210.724 35.5422L219.478 35.0746C222.108 34.9276 224.243 33.4311 225.337 31.213C233.451 32.91 242.006 31.1328 250.547 32.8431C256.419 34.1526 255.765 43.292 262.291 43.9467C271.646 45.2161 280.907 45.2963 290.076 45.3898L291.023 47.3005L205.639 51.3358L207.935 38.0542C208.188 36.6245 209.309 35.609 210.724 35.5422Z" fill="#97A6B7"/>
<path d="M288.18 305.783C287.9 310.874 288.233 315.096 288.193 320.08C268.803 310.874 248.411 305.556 228.726 296.27C250.72 278.833 266.934 273.822 270.831 241.487C272.659 226.308 271.819 195.87 282.682 184.739C295.066 172.072 304.368 180.317 306.957 165.525C311.001 142.409 330.312 124.05 355.668 144.574C380.69 164.83 348.435 241.981 323.666 256.599C305.089 273.261 289.661 279.18 288.18 305.783Z" fill="url(#paint3_linear)"/>
<g opacity="0.7">
<g opacity="0.7">
<path opacity="0.7" d="M258.006 305.169L258.393 305.422C262.771 298.822 267.722 292.488 272.513 286.355L274.328 284.03C278.171 279.1 281.521 274.61 284.484 270.655C286.138 268.437 287.713 266.339 289.248 264.308C293.959 258.122 297.268 253.793 298.91 251.655L299.991 250.238C312.896 233.269 324.199 205.45 330.258 190.512C330.912 188.895 331.499 187.452 332.02 186.209C340.815 164.91 352.518 143.812 366.785 123.476L366.411 123.208C352.118 143.558 340.401 164.697 331.593 186.022C331.086 187.265 330.499 188.708 329.831 190.324C323.772 205.25 312.482 233.029 299.617 249.958L298.536 251.374C296.895 253.525 293.585 257.841 288.874 264.028C287.339 266.045 285.765 268.157 284.097 270.375C281.134 274.33 277.784 278.806 273.941 283.736L272.152 286.075C267.361 292.208 262.397 298.541 258.006 305.169Z" fill="#FCFDFE"/>
<path opacity="0.7" d="M282.121 273.982L282.508 274.249C290.502 262.625 295.213 245.749 296.147 225.439C296.921 208.523 294.959 189.777 290.782 174.01L290.342 174.13C298.429 204.688 299.31 248.982 282.121 273.982Z" fill="#FCFDFE"/>
<path opacity="0.7" d="M328.87 192.836L329.324 192.903C330.952 180.811 331.072 168.438 331.179 156.479C331.259 148.288 331.339 139.83 331.9 131.519L331.433 131.493C330.872 139.817 330.792 148.288 330.712 156.479C330.619 168.425 330.499 180.784 328.87 192.836Z" fill="#FCFDFE"/>
<path opacity="0.7" d="M313.056 228.98C324.96 216.901 346.353 206.145 358.857 205.944L358.844 205.477C346.246 205.677 324.693 216.5 312.722 228.646L313.056 228.98Z" fill="#FCFDFE"/>
</g>
</g>
<path d="M306.851 252.55C300.058 277.817 285.645 271.377 266.881 263.961C268.656 288.266 269.484 312.01 270.244 336.101C282.869 340.884 292.011 344.065 300.165 329.834C309.386 313.733 314.177 304.14 334.396 301.32C354.614 298.501 370.668 284.765 365.21 265.083C359.472 244.359 378.649 219.079 362.608 203.245C334.676 175.64 313.924 226.241 306.851 252.55Z" fill="url(#paint4_linear)"/>
<g opacity="0.5">
<g opacity="0.5">
<path opacity="0.5" d="M273.914 305.529C294.306 297.152 311.068 289.616 325.668 275.265C339.654 261.543 347.02 246.27 350.317 224.196C352.025 212.759 354.547 204.769 358.177 193.865L357.737 193.718C354.08 204.635 351.571 212.652 349.85 224.13C346.567 246.083 339.24 261.275 325.334 274.931C310.788 289.215 294.066 296.737 273.728 305.088L273.914 305.529Z" fill="#FCFDFE"/>
<path opacity="0.5" d="M296.949 338.88L297.322 338.613C293.092 332.707 288.448 327.83 283.109 323.715C280.374 321.603 277.544 320.107 274.115 318.517L273.914 318.931C277.304 320.508 280.12 321.991 282.816 324.075C288.127 328.164 292.745 333.014 296.949 338.88Z" fill="#FCFDFE"/>
<path opacity="0.5" d="M316.273 283.482C331.66 277.136 350.317 276.534 368.813 281.799L368.934 281.358C350.343 276.067 331.566 276.668 316.086 283.055L316.273 283.482Z" fill="#FCFDFE"/>
<path opacity="0.5" d="M343.911 247.499L344.365 247.579C344.805 245.134 342.35 221.604 341.589 214.456C340.001 199.651 338.106 183.737 337.665 182.735L337.238 182.922C337.599 183.764 339.387 198.235 341.122 214.509C342.697 229.207 344.245 245.602 343.911 247.499Z" fill="#FCFDFE"/>
</g>
</g>
<path d="M40.6098 262.251C41.8109 269.6 50.6055 277.283 80.3925 288.734C96.6339 294.973 142.035 312.798 182.044 325.933C220.159 338.439 234.398 344.933 254.056 350.585C262.531 353.017 333.501 372.605 367.252 343.837C379.797 333.148 387.937 317.982 390.406 300.398C390.153 300.345 390.34 294.439 390.086 294.386C285.431 270.882 203.771 260.714 205.773 245.655C206.333 241.433 213.153 237.384 223.429 234.004L222.881 214.897C211.084 215.632 200.234 216.38 192.4 217.048C163.988 219.48 109.285 224.103 78.3373 234.953C61.6822 240.792 48.0699 243.598 42.6917 248.167C40.7299 249.838 40.0894 254.795 40.1427 256.492C40.2228 259.739 40.2628 260.18 40.6098 262.251Z" fill="#97A6B7"/>
<path d="M41.0503 254.795C42.2514 262.13 50.5923 270.281 80.3525 281.812C96.5672 288.092 141.928 306.01 181.898 319.238C219.972 331.825 234.198 338.359 253.843 344.051C262.317 346.51 333.221 366.272 366.945 337.664C379.476 327.028 387.617 311.93 390.086 294.386C284.978 270.775 203.597 254.247 205.612 239.202C206.173 234.993 212.979 230.957 223.242 227.63L222.695 208.563C210.911 209.258 200.074 209.98 192.254 210.621C163.868 212.959 109.232 217.409 78.2973 228.152C46.4018 239.202 39.8625 247.473 41.0503 254.795Z" fill="#D8DEE8"/>
<path d="M355.481 330.623C356.589 330.556 357.59 329.808 357.91 328.699C358.311 327.309 357.497 325.879 356.082 325.505C350.784 324.089 345.499 322.646 340.348 321.216C338.92 320.828 337.425 321.63 337.011 323.033C336.584 324.436 337.398 325.879 338.826 326.28C344.004 327.696 349.316 329.139 354.641 330.542C354.921 330.609 355.201 330.636 355.481 330.623Z" fill="white"/>
<path d="M301.86 315.551C302.994 315.497 304.035 314.776 304.409 313.68C304.876 312.277 304.088 310.78 302.62 310.353C289.942 306.558 277.277 302.616 263.905 298.314C262.411 297.833 260.756 298.581 260.222 299.998C259.688 301.414 260.475 302.95 261.97 303.432C275.409 307.734 288.141 311.662 300.899 315.444C301.219 315.537 301.553 315.564 301.86 315.551ZM223.162 290.444C224.336 290.404 225.444 289.722 225.884 288.64C226.471 287.224 225.697 285.647 224.163 285.126C222.241 284.471 220.319 283.817 218.371 283.148C206.92 279.233 196.471 274.971 184.46 269.306C182.952 268.598 181.084 269.119 180.27 270.482C179.456 271.844 180.029 273.528 181.537 274.236C193.802 279.995 204.492 284.324 216.195 288.306C218.144 288.974 220.092 289.629 222.014 290.284C222.414 290.404 222.788 290.457 223.162 290.444Z" fill="white"/>
<path d="M143.223 255.262C144.357 255.249 145.465 254.688 146.025 253.739C146.839 252.363 146.239 250.666 144.677 249.958C138.605 247.179 132.747 244.68 126.781 242.315C125.153 241.674 123.231 242.302 122.484 243.718C121.737 245.148 122.444 246.818 124.085 247.459C129.971 249.784 135.736 252.229 141.728 254.955C142.195 255.169 142.716 255.276 143.223 255.262Z" fill="white"/>
<path d="M59.5338 238.667L59.4804 251.227C59.4804 252.39 60.2811 253.432 61.3487 253.632L190.906 276.868L209.883 291.125L238.696 257.988L59.5338 238.667Z" fill="url(#paint5_linear)"/>
<path d="M156.515 263.533L156.261 275.505C156.234 276.508 156.942 277.416 157.916 277.67L191.106 285.994L190.652 266.192L158.717 261.663C157.556 261.489 156.541 262.358 156.515 263.533Z" fill="url(#paint6_linear)"/>
<path d="M71.598 245.321C71.5046 245.308 71.3978 245.321 71.3044 245.321L69.7831 245.201V245.923C68.3017 247.058 67.2608 249.704 67.2474 252.857C67.2341 256.131 68.3151 259.017 69.8765 260.313V260.888L71.4912 261.021C73.8801 261.222 75.8419 257.855 75.8685 253.512C75.9219 249.156 74.0002 245.495 71.598 245.321Z" fill="url(#paint7_linear)"/>
<path d="M74.0537 253.378C74.027 257.721 72.0652 261.075 69.6897 260.888C67.3142 260.701 65.4192 257.053 65.4459 252.737C65.4726 248.421 67.4076 245.041 69.7831 245.214C72.172 245.361 74.0804 249.023 74.0537 253.378Z" fill="url(#paint8_linear)"/>
<path d="M71.558 253.178C71.5446 255.61 70.4503 257.494 69.1158 257.4C67.7813 257.293 66.7136 255.249 66.727 252.817C66.7403 250.385 67.8347 248.501 69.1692 248.595C70.4904 248.688 71.5713 250.746 71.558 253.178Z" fill="#D8DEE8"/>
<path d="M71.558 253.178C71.5446 255.436 70.6105 257.2 69.4761 257.106C68.3417 257.013 67.4342 255.115 67.4476 252.871C67.4609 250.613 68.3951 248.849 69.5161 248.929C70.6638 249.023 71.5713 250.92 71.558 253.178Z" fill="url(#paint9_linear)"/>
<path d="M81.8873 246.939C81.7806 246.926 81.6738 246.939 81.567 246.939L79.8722 246.792V247.594C78.2173 248.85 77.0563 251.763 77.0296 255.237C77.0029 258.844 78.204 262.038 79.9389 263.467V264.109L81.7405 264.256C84.3963 264.483 86.585 260.768 86.625 255.985C86.6784 251.175 84.5564 247.126 81.8873 246.939Z" fill="url(#paint10_linear)"/>
<path d="M84.5967 255.824C84.5566 260.607 82.368 264.308 79.7256 264.095C77.0965 263.881 74.9879 259.846 75.028 255.089C75.068 250.319 77.23 246.604 79.8724 246.791C82.5148 246.978 84.6501 251.027 84.5967 255.824Z" fill="url(#paint11_linear)"/>
<path d="M81.8207 255.61C81.794 258.296 80.5796 260.38 79.0849 260.26C77.6035 260.14 76.4158 257.881 76.4425 255.196C76.4692 252.523 77.6836 250.439 79.1649 250.546C80.6463 250.653 81.834 252.924 81.8207 255.61Z" fill="#D8DEE8"/>
<path d="M81.8207 255.61C81.794 258.109 80.753 260.046 79.4985 259.939C78.2441 259.832 77.2432 257.748 77.2565 255.262C77.2699 252.777 78.3108 250.826 79.5653 250.92C80.8331 251.013 81.834 253.111 81.8207 255.61Z" fill="url(#paint12_linear)"/>
<path d="M93.0442 247.727C92.9241 247.714 92.804 247.714 92.6839 247.727L90.8022 247.567V248.449C88.9605 249.825 87.6793 253.032 87.6393 256.867C87.5993 260.835 88.9338 264.336 90.8422 265.913V266.621L92.844 266.795C95.7933 267.048 98.2355 262.973 98.2889 257.695C98.3556 252.391 96.0068 247.928 93.0442 247.727Z" fill="url(#paint13_linear)"/>
<path d="M96.047 257.507C95.9936 262.772 93.5514 266.834 90.6287 266.593C87.7061 266.353 85.384 261.917 85.4374 256.692C85.4907 251.454 87.8929 247.366 90.8156 247.566C93.7516 247.767 96.1003 252.229 96.047 257.507Z" fill="url(#paint14_linear)"/>
<path d="M92.9505 257.267C92.9238 260.22 91.5626 262.505 89.9078 262.371C88.2663 262.237 86.9585 259.752 86.9852 256.799C87.0119 253.859 88.3598 251.561 90.0146 251.681C91.6694 251.802 92.9772 254.3 92.9505 257.267Z" fill="#D8DEE8"/>
<path d="M92.9507 257.267C92.924 260.006 91.763 262.144 90.3617 262.023C88.9604 261.917 87.8527 259.605 87.8794 256.866C87.9061 254.127 89.0538 251.989 90.4551 252.096C91.8697 252.203 92.9774 254.514 92.9507 257.267Z" fill="url(#paint15_linear)"/>
<path d="M146.839 256.693C146.679 256.68 146.506 256.68 146.346 256.693L143.757 256.466L143.743 257.629C141.208 259.432 139.393 263.668 139.299 268.705C139.206 273.943 140.981 278.593 143.596 280.691V281.626L146.346 281.88C150.389 282.254 153.819 276.91 153.966 269.921C154.113 262.933 150.91 257.001 146.839 256.693Z" fill="url(#paint16_linear)"/>
<path d="M150.856 269.666C150.709 276.628 147.306 281.973 143.276 281.598C139.272 281.224 136.136 275.359 136.256 268.45C136.377 261.529 139.726 256.158 143.757 256.452C147.814 256.759 150.99 262.678 150.856 269.666Z" fill="url(#paint17_linear)"/>
<path d="M146.599 269.319C146.519 273.221 144.624 276.227 142.355 276.027C140.1 275.826 138.338 272.526 138.405 268.638C138.472 264.749 140.367 261.73 142.622 261.917C144.891 262.09 146.679 265.404 146.599 269.319Z" fill="#D8DEE8"/>
<path d="M146.599 269.319C146.532 272.94 144.904 275.746 142.983 275.572C141.061 275.399 139.566 272.352 139.633 268.744C139.7 265.137 141.301 262.317 143.223 262.478C145.158 262.611 146.666 265.685 146.599 269.319Z" fill="url(#paint18_linear)"/>
<path d="M197.392 262.519C197.165 262.505 196.938 262.505 196.711 262.505L193.161 262.198L193.135 263.735C189.638 266.113 187.129 271.658 186.942 278.312C186.755 285.207 189.144 291.34 192.694 294.146L192.681 295.375L196.431 295.736C201.969 296.284 206.72 289.269 207.001 280.049C207.294 270.803 202.97 262.933 197.392 262.519Z" fill="url(#paint19_linear)"/>
<path d="M202.744 279.674C202.477 288.867 197.752 295.855 192.254 295.321C186.782 294.786 182.579 287.023 182.819 277.951C183.059 268.851 187.677 261.783 193.175 262.197C198.713 262.611 203.01 270.455 202.744 279.674Z" fill="url(#paint20_linear)"/>
<path d="M196.925 279.167C196.778 284.311 194.149 288.253 191.053 287.959C187.983 287.678 185.608 283.309 185.741 278.191C185.875 273.074 188.477 269.119 191.56 269.359C194.669 269.626 197.072 274.009 196.925 279.167Z" fill="#D8DEE8"/>
<path d="M196.925 279.167C196.791 283.95 194.549 287.625 191.92 287.371C189.304 287.13 187.303 283.082 187.423 278.338C187.556 273.581 189.771 269.894 192.401 270.094C195.03 270.321 197.058 274.383 196.925 279.167Z" fill="url(#paint21_linear)"/>
<path d="M52.741 170.75C51.1929 171.017 50.0452 172.473 50.0452 174.21L49.8584 238.293C49.8584 240.137 51.1662 241.754 52.8477 241.968L171.435 257.307L174.011 150.293L52.741 170.75Z" fill="url(#paint22_linear)"/>
<path d="M252.188 152.978L174.024 150.293L171.448 257.307L252.428 263.239L256.472 157.415C256.552 155.023 254.657 153.059 252.188 152.978Z" fill="url(#paint23_linear)"/>
<path d="M145.171 229.287C129.424 220.909 114.65 231.505 100.851 219.867C88.947 209.819 92.9506 195.883 83.5688 178.927C81.4335 175.065 78.5643 171.003 74.6541 167.035L52.7276 170.736C51.1795 171.003 50.0318 172.46 50.0318 174.197L49.8449 238.28C49.8449 240.124 51.1528 241.74 52.8343 241.954L164.802 256.438C159.611 240.725 152.271 233.069 145.171 229.287Z" fill="url(#paint24_linear)"/>
<path d="M296.201 228.018L291.17 214.162L291.677 202.684L297.696 201.655C298.283 201.548 298.67 201.027 298.563 200.479C297.869 197.059 295.254 185.728 290.329 181.907C286.846 179.207 217.557 177.297 217.557 177.297L183.913 178.82C181.271 178.94 179.149 180.971 179.082 183.457L177.2 251.989C177.147 253.753 178.575 255.236 180.483 255.409L202.997 257.454L207.307 261.649C207.307 261.649 270.538 266.981 295.948 263.012C297.269 262.812 298.27 261.77 298.35 260.554L300.178 231.091C300.445 226.775 296.201 228.018 296.201 228.018Z" fill="#F4F7FA"/>
<path opacity="0.8" d="M226.712 231.251C226.712 231.251 227.232 201.535 228.46 189.162C229.06 183.136 225.978 179.555 222.655 177.457C219.479 177.364 217.57 177.31 217.57 177.31L183.926 178.833C181.284 178.954 179.162 180.985 179.095 183.47L177.214 252.002C177.16 253.766 178.588 255.249 180.497 255.423L203.01 257.467L207.321 261.663C207.321 261.663 217.784 262.545 231.89 263.32L232.971 238.48L226.712 231.251Z" fill="url(#paint25_linear)"/>
<path d="M297.149 268.17L294.706 267.341L294.987 262.678C295.067 261.422 294.026 260.393 292.665 260.367L214.154 259.525C212.245 259.498 210.657 260.901 210.59 262.651L209.549 290.457C209.496 291.98 210.831 293.196 212.499 293.156L295.921 290.952C297.482 290.911 298.79 289.749 298.884 288.319L299.911 272.098C300.018 270.348 298.91 268.771 297.149 268.17Z" fill="#97A6B7"/>
<path d="M289.075 244.012L242.379 243.464C240.804 243.451 239.497 244.667 239.55 246.123L240.578 279.821C240.631 281.491 242.126 282.788 243.954 282.748L283.697 281.879C285.431 281.839 286.913 280.61 287.126 279.033L291.61 246.724C291.811 245.281 290.649 244.039 289.075 244.012Z" fill="url(#paint26_linear)"/>
<g opacity="0.3">
<path opacity="0.3" d="M297.149 268.17L294.706 267.341L294.987 262.678C295.053 261.689 294.413 260.834 293.465 260.514L287.487 281.01C286.779 283.429 284.39 285.179 281.681 285.259L245.235 286.222C242.619 286.288 240.311 284.792 239.563 282.52L232.01 259.739L214.154 259.552C212.245 259.525 210.657 260.928 210.59 262.678L209.549 290.484C209.496 292.007 210.831 293.223 212.499 293.183L295.921 290.978C297.482 290.938 298.79 289.776 298.884 288.346L299.911 272.125C300.018 270.348 298.91 268.771 297.149 268.17Z" fill="#97A6B7"/>
</g>
<path d="M234.853 284.257L226.138 284.578C220.72 284.779 216.222 281.011 215.969 276.067L215.769 272.178L233.251 272.352C234.425 272.365 235.333 273.247 235.293 274.33L234.853 284.257Z" fill="url(#paint27_linear)"/>
<path d="M291.33 274.557L289.435 283.188C289.435 283.188 298.55 282.975 298.977 272.419L293.279 272.94C292.318 273.007 291.517 273.675 291.33 274.557Z" fill="url(#paint28_linear)"/>
<path d="M291.677 202.684L227.632 201.762L224.069 201.134C222.214 200.8 220.452 202.123 220.372 203.9L219.598 223.742C219.545 225.239 220.252 226.642 221.507 227.55L225.043 230.076C226.124 230.851 227.459 231.265 228.847 231.251L295.387 230.984L296.201 228.018L291.677 202.684Z" fill="url(#paint29_linear)"/>
<path d="M252.268 195.175L246.796 195.095C245.969 195.081 245.261 195.696 245.235 196.484L245.141 198.635C245.101 199.41 245.742 200.052 246.569 200.065L252.028 200.145C252.855 200.159 253.549 199.544 253.589 198.769L253.696 196.618C253.736 195.816 253.095 195.188 252.268 195.175Z" fill="#97A6B7"/>
<path d="M284.284 195.642L278.839 195.562C278.011 195.549 277.304 196.164 277.264 196.939L277.144 199.09C277.104 199.865 277.731 200.506 278.558 200.519L283.99 200.6C284.817 200.613 285.511 199.998 285.565 199.223L285.685 197.086C285.738 196.297 285.098 195.656 284.284 195.642Z" fill="#97A6B7"/>
<path opacity="0.3" d="M270.938 216.5C254.777 210.38 238.909 217.516 232.143 209.405C230.301 207.2 229.634 204.488 229.567 201.789L227.632 201.762L224.069 201.134C222.214 200.8 220.453 202.123 220.373 203.9L219.598 223.742C219.545 225.239 220.252 226.642 221.507 227.55L225.043 230.076C226.124 230.851 227.459 231.265 228.847 231.265L289.141 231.024C282.842 222.366 276.13 218.464 270.938 216.5Z" fill="white"/>
<path d="M295.547 231.171L296.401 228.018L291.624 202.951H291.424L227.873 201.522L224.363 200.88C224.149 200.84 223.936 200.827 223.722 200.827C221.961 200.827 220.453 202.15 220.359 203.78L219.265 223.234C219.172 224.784 219.906 226.281 221.227 227.216L224.75 229.742C225.858 230.543 227.272 230.984 228.7 230.984L295.547 231.171ZM295.894 227.991L295.174 230.677L228.7 230.476C227.366 230.476 226.071 230.062 225.03 229.327L221.507 226.802C220.333 225.96 219.679 224.624 219.745 223.248L220.84 203.793C220.92 202.417 222.214 201.308 223.722 201.308C223.909 201.308 224.096 201.321 224.269 201.361L227.819 202.003L291.21 203.432L295.894 227.991Z" fill="#808080"/>
<path d="M61.8829 380.315C58.0394 380.649 51.3667 381.183 46.0953 381.424C42.9324 381.558 41.1174 381.25 40.0631 380.836C40.0631 380.956 40.0631 381.063 40.0765 381.17C40.1032 381.718 40.5569 382.172 41.1041 382.199C51.0464 382.76 58.9603 382.386 61.7628 382.226C62.35 382.186 62.697 381.558 62.39 381.063C62.2566 380.796 62.0831 380.555 61.8829 380.315Z" fill="url(#paint30_linear)"/>
<path d="M46.0952 381.411C51.3533 381.183 58.026 380.636 61.8828 380.302C58.1061 375.652 46.0952 372.525 46.0952 372.525H42.7055C40.37 375.892 40.0364 379.099 40.0631 380.809C41.1173 381.25 42.9323 381.558 46.0952 381.411Z" fill="url(#paint31_linear)"/>
<path d="M42.1447 366.993L42.465 373.273C42.5051 373.955 43.0122 374.529 43.6928 374.623C44.3734 374.716 45.2809 374.73 46.2418 374.409C46.829 374.209 47.2694 373.714 47.3761 373.1L48.4705 366.98H42.1447V366.993Z" fill="url(#paint32_linear)"/>
<path d="M2.80244 387.557C1.13428 387.25 0.373591 386.141 0.0666485 384.938C0.0666485 384.951 0.0666485 384.965 0.0666485 384.965C-0.173568 386.234 0.386956 387.544 1.52131 388.158C2.89588 388.906 4.40388 389.04 5.56492 388.973C6.81938 388.906 7.96711 388.238 8.59434 387.169L8.60767 387.156C7.33986 387.971 5.57827 388.065 2.80244 387.557Z" fill="url(#paint33_linear)"/>
<path d="M10.6628 368.931H7.87362C3.61642 368.824 0.947329 380.435 0.0665283 384.938C0.38682 386.141 1.13416 387.263 2.80235 387.557C5.5782 388.065 7.35315 387.958 8.60762 387.156C10.903 383.241 12.0508 377.509 12.5979 374.155C13.2118 370.347 10.6628 368.931 10.6628 368.931Z" fill="url(#paint34_linear)"/>
<path d="M8.22089 363.092L6.67281 369.278C6.48597 370.04 6.8463 370.815 7.54026 371.175C8.40771 371.616 9.6355 372.084 10.7565 371.95C11.2903 371.884 11.7174 371.509 11.9042 371.015L14.1863 364.508L8.22089 363.092Z" fill="url(#paint35_linear)"/>
<path d="M62.8301 281.692C62.8301 281.692 48.9642 368.503 49.1911 368.984C49.1911 368.984 45.361 370.721 41.1838 369.211C41.1838 369.211 42.4383 322.806 45.3743 305.008C45.3743 305.008 21.6996 346.483 14.1861 367.154C14.1861 367.154 10.2626 366.686 7.01962 364.548C7.01962 364.548 32.5093 289.883 39.3021 279.942L62.8301 281.692Z" fill="url(#paint36_linear)"/>
<path d="M45.9218 304.554C45.8417 304.554 45.775 304.54 45.7082 304.487C45.5214 304.367 45.4547 304.113 45.5748 303.926L50.7528 295.642C50.8062 295.548 50.9129 295.481 51.0197 295.455L54.8365 294.68C55.0634 294.639 55.2769 294.773 55.3169 295C55.357 295.227 55.2235 295.441 54.9966 295.481L51.3533 296.216L46.2687 304.353C46.202 304.487 46.0686 304.554 45.9218 304.554Z" fill="url(#paint37_linear)"/>
<path d="M126.474 196.685C126.474 196.685 117.119 198.756 111.421 201.388C110.286 201.909 109.392 202.831 108.872 203.953C107.164 207.681 102.079 217.048 92.1901 221.524C93.618 223.408 95.9001 227.35 96.901 233.951C102.84 229.528 107.951 222.139 110.42 210.033C110.42 210.033 112.288 211.048 114.624 209.913C115.852 209.311 117.279 208.456 118.347 207.788C119.415 207.12 120.202 206.078 120.509 204.875C120.923 203.272 120.683 201.869 120.683 200.359L125.5 198.863C125.514 198.876 126.968 198.328 126.474 196.685Z" fill="url(#paint38_linear)"/>
<path d="M96.9143 233.95C95.9134 227.336 93.6314 223.408 92.2034 221.524C86.0645 224.303 78.084 225.185 67.9148 221.658C66.9806 221.337 66.0064 221.137 65.0055 221.083C59.5872 220.762 41.7578 220.188 26.9978 225.065C23.8883 226.094 21.3793 228.392 20.0848 231.372C16.0946 240.538 9.63539 261.436 27.5716 271.978C28.9462 268.557 30.5343 265.791 31.8955 263.774C28.9996 258.897 28.1455 252.229 33.2835 243.558C37.0202 253.659 38.7817 268.41 39.1421 274.944C39.2622 277.095 38.8885 279.233 38.0478 281.224L37.9543 281.438C37.7675 281.866 38.0211 282.347 38.4748 282.454C48.5773 284.725 59.0801 284.11 62.2163 283.843C62.7768 283.803 63.2439 283.389 63.364 282.854C68.2751 262.13 68.2884 248.007 67.0873 239.068C71.6915 240.083 85.7442 242.275 96.9143 233.95Z" fill="url(#paint39_linear)"/>
<path d="M67.1273 239.602C66.9271 239.602 66.7537 239.456 66.727 239.242C65.5793 230.517 63.2305 226.708 63.2038 226.668C63.0837 226.481 63.1371 226.227 63.3373 226.107C63.5241 225.987 63.7777 226.04 63.8978 226.227C64.0045 226.388 66.3667 230.196 67.541 239.121C67.5677 239.349 67.4076 239.549 67.194 239.576C67.154 239.602 67.1407 239.602 67.1273 239.602Z" fill="url(#paint40_linear)"/>
<path d="M42.1982 209.004C42.1982 209.004 41.1706 219.827 40.2765 223.021C40.143 223.502 40.3565 224.023 40.7969 224.263C42.3183 225.132 45.9883 226.561 50.9928 224.103C51.8069 223.702 52.2874 222.86 52.2607 221.965L51.8203 211.516L42.1982 209.004Z" fill="url(#paint41_linear)"/>
<path d="M52.0336 195.175C52.0336 195.175 55.3032 202.697 55.5168 206.639C55.7303 210.581 56.5844 213.146 52.0336 213.935C47.4829 214.723 43.6394 212.451 41.5575 208.523C41.5575 208.523 38.3012 202.47 39.0352 199.985C39.7559 197.513 52.0336 195.175 52.0336 195.175Z" fill="url(#paint42_linear)"/>
<path d="M43.119 205.69L43.3725 205.57C43.7061 205.423 43.8396 205.036 43.6795 204.715C43.0389 203.472 41.7844 200.626 43.3992 199.958C45.4811 199.103 53.7419 197.42 55.5302 194.48C57.2384 191.661 55.7304 188.013 53.4483 186.984C53.3015 186.917 53.1147 186.971 53.0346 187.118L52.8478 187.478C52.7143 187.719 52.354 187.692 52.2739 187.425C52.1938 187.171 51.8602 187.118 51.7134 187.345C51.1662 188.227 49.6849 189.643 45.7346 190.378C40.1162 191.42 36.3929 193.692 36.2994 197.58C36.2994 197.82 36.0326 197.967 35.819 197.834C35.4053 197.58 34.738 197.46 33.8572 198.208C32.3092 199.504 32.9497 202.884 36.3261 205.65C36.4863 205.784 36.4863 206.038 36.3128 206.145C35.6989 206.546 34.7914 207.494 37.1536 208.764C39.6091 210.073 41.4374 209.966 42.1447 209.846C42.3182 209.819 42.4383 209.645 42.3983 209.472L41.651 206.051C41.6109 205.864 41.7577 205.677 41.9579 205.677H43.119V205.69Z" fill="url(#paint43_linear)"/>
<path d="M43.2524 206.412C43.2524 206.412 42.0113 201.615 39.8493 202.951C37.7007 204.301 40.9703 208.336 42.6919 208.51L43.2524 206.412Z" fill="url(#paint44_linear)"/>
<path d="M112.929 208.911C112.836 208.911 112.742 208.884 112.675 208.817C112.502 208.67 112.475 208.416 112.622 208.243C112.982 207.802 116.119 203.967 117.333 203.272C117.773 203.018 118.04 202.764 118.094 202.524C118.12 202.417 118.107 202.283 118.04 202.136L114.344 202.871L112.248 204.662C112.075 204.809 111.821 204.795 111.674 204.622C111.528 204.448 111.541 204.194 111.715 204.047L113.89 202.176C113.943 202.136 114.01 202.096 114.077 202.083L118.16 201.268C118.321 201.241 118.494 201.308 118.587 201.441C118.881 201.882 118.988 202.297 118.894 202.711C118.788 203.192 118.401 203.606 117.747 203.98C116.839 204.501 114.21 207.601 113.276 208.75C113.169 208.857 113.049 208.911 112.929 208.911Z" fill="#F8A570"/>
<path d="M43.0925 277.162L57.5322 277.336L52.4743 272.566C51.2198 271.377 49.2981 271.19 47.8434 272.138C46.9893 272.686 46.0685 273.434 45.2811 274.437C45.2811 274.437 36.273 271.136 31.8957 263.761C30.5344 265.778 28.9464 268.544 27.5718 271.965C31.4953 274.276 36.5799 276.08 43.0925 277.162Z" fill="url(#paint45_linear)"/>
<path d="M44.6539 279.033C44.6806 279.033 44.7072 279.033 44.7339 279.033L81.4071 278.993C82.3146 278.993 83.0486 278.258 83.0486 277.363C83.0486 276.468 82.3146 275.719 81.4071 275.733L44.7339 275.773C43.8264 275.773 43.0925 276.508 43.0925 277.403C43.0925 278.285 43.7864 278.993 44.6539 279.033Z" fill="url(#paint46_linear)"/>
<path d="M114.37 246.056H83.836C81.5806 246.056 79.5388 247.339 78.5779 249.357L64.4584 279.006H102.399C103.854 279.006 105.162 278.124 105.696 276.788L116.639 249.343C117.266 247.767 116.092 246.056 114.37 246.056Z" fill="url(#paint47_linear)"/>
<path d="M92.8575 261.262C92.1902 263.293 92.684 265.27 93.9518 265.685C95.2196 266.085 96.781 264.763 97.4349 262.732C98.1022 260.701 97.6084 258.723 96.3406 258.309C95.0728 257.895 93.5114 259.218 92.8575 261.262Z" fill="url(#paint48_linear)"/>
</g>
<defs>
<linearGradient id="paint0_linear" x1="104.305" y1="147.596" x2="160.677" y2="147.596" gradientUnits="userSpaceOnUse">
<stop offset="0.494" stop-color="#EBEFF2"/>
<stop offset="1" stop-color="white"/>
</linearGradient>
<linearGradient id="paint1_linear" x1="230.888" y1="104.534" x2="119.041" y2="104.534" gradientUnits="userSpaceOnUse">
<stop stop-color="#FFC444"/>
<stop offset="0.9964" stop-color="#F36F56"/>
</linearGradient>
<linearGradient id="paint2_linear" x1="121.95" y1="79.3191" x2="158.775" y2="178.045" gradientUnits="userSpaceOnUse">
<stop stop-color="#FF9085"/>
<stop offset="1" stop-color="#FB6FBB"/>
</linearGradient>
<linearGradient id="paint3_linear" x1="231.304" y1="350.667" x2="405.755" y2="49.3802" gradientUnits="userSpaceOnUse">
<stop stop-color="#FFC444"/>
<stop offset="0.3138" stop-color="#FBA94A"/>
<stop offset="0.9964" stop-color="#F36F56"/>
</linearGradient>
<linearGradient id="paint4_linear" x1="348.036" y1="219.818" x2="242.348" y2="393.596" gradientUnits="userSpaceOnUse">
<stop offset="0.00359712" stop-color="#E38DDD"/>
<stop offset="1" stop-color="#9571F6"/>
</linearGradient>
<linearGradient id="paint5_linear" x1="59.4744" y1="264.902" x2="238.691" y2="264.902" gradientUnits="userSpaceOnUse">
<stop stop-color="#444B8C"/>
<stop offset="0.9964" stop-color="#26264F"/>
</linearGradient>
<linearGradient id="paint6_linear" x1="156.264" y1="273.812" x2="191.107" y2="273.812" gradientUnits="userSpaceOnUse">
<stop stop-color="#444B8C"/>
<stop offset="0.9964" stop-color="#26264F"/>
</linearGradient>
<linearGradient id="paint7_linear" x1="67.2483" y1="253.113" x2="75.8835" y2="253.113" gradientUnits="userSpaceOnUse">
<stop stop-color="#311944"/>
<stop offset="1" stop-color="#6B3976"/>
</linearGradient>
<linearGradient id="paint8_linear" x1="65.4435" y1="253.036" x2="74.0557" y2="253.036" gradientUnits="userSpaceOnUse">
<stop stop-color="#311944"/>
<stop offset="1" stop-color="#6B3976"/>
</linearGradient>
<linearGradient id="paint9_linear" x1="73.8679" y1="253.614" x2="67.0711" y2="252.7" gradientUnits="userSpaceOnUse">
<stop offset="0.00540541" stop-color="#D8DEE8"/>
<stop offset="1" stop-color="#F4F7FA"/>
</linearGradient>
<linearGradient id="paint10_linear" x1="77.0335" y1="255.528" x2="86.6358" y2="255.528" gradientUnits="userSpaceOnUse">
<stop stop-color="#311944"/>
<stop offset="1" stop-color="#6B3976"/>
</linearGradient>
<linearGradient id="paint11_linear" x1="75.0285" y1="255.44" x2="84.6024" y2="255.44" gradientUnits="userSpaceOnUse">
<stop stop-color="#311944"/>
<stop offset="1" stop-color="#6B3976"/>
</linearGradient>
<linearGradient id="paint12_linear" x1="84.3866" y1="256.082" x2="76.8398" y2="255.067" gradientUnits="userSpaceOnUse">
<stop offset="0.00540541" stop-color="#D8DEE8"/>
<stop offset="1" stop-color="#F4F7FA"/>
</linearGradient>
<linearGradient id="paint13_linear" x1="87.645" y1="257.176" x2="98.2996" y2="257.176" gradientUnits="userSpaceOnUse">
<stop stop-color="#311944"/>
<stop offset="1" stop-color="#6B3976"/>
</linearGradient>
<linearGradient id="paint14_linear" x1="85.4221" y1="257.077" x2="96.0421" y2="257.077" gradientUnits="userSpaceOnUse">
<stop stop-color="#311944"/>
<stop offset="1" stop-color="#6B3976"/>
</linearGradient>
<linearGradient id="paint15_linear" x1="95.7942" y1="257.789" x2="87.4339" y2="256.665" gradientUnits="userSpaceOnUse">
<stop offset="0.00540541" stop-color="#D8DEE8"/>
<stop offset="1" stop-color="#F4F7FA"/>
</linearGradient>
<linearGradient id="paint16_linear" x1="139.301" y1="269.184" x2="153.967" y2="269.184" gradientUnits="userSpaceOnUse">
<stop stop-color="#311944"/>
<stop offset="1" stop-color="#6B3976"/>
</linearGradient>
<linearGradient id="paint17_linear" x1="136.252" y1="269.036" x2="150.855" y2="269.036" gradientUnits="userSpaceOnUse">
<stop stop-color="#311944"/>
<stop offset="1" stop-color="#6B3976"/>
</linearGradient>
<linearGradient id="paint18_linear" x1="150.465" y1="270.01" x2="139.034" y2="268.473" gradientUnits="userSpaceOnUse">
<stop offset="0.00540541" stop-color="#D8DEE8"/>
<stop offset="1" stop-color="#F4F7FA"/>
</linearGradient>
<linearGradient id="paint19_linear" x1="186.954" y1="278.98" x2="207.021" y2="278.98" gradientUnits="userSpaceOnUse">
<stop stop-color="#311944"/>
<stop offset="1" stop-color="#6B3976"/>
</linearGradient>
<linearGradient id="paint20_linear" x1="182.801" y1="278.765" x2="202.754" y2="278.765" gradientUnits="userSpaceOnUse">
<stop stop-color="#311944"/>
<stop offset="1" stop-color="#6B3976"/>
</linearGradient>
<linearGradient id="paint21_linear" x1="202.161" y1="280.094" x2="186.616" y2="278.004" gradientUnits="userSpaceOnUse">
<stop offset="0.00540541" stop-color="#D8DEE8"/>
<stop offset="1" stop-color="#F4F7FA"/>
</linearGradient>
<linearGradient id="paint22_linear" x1="154.168" y1="186.505" x2="-29.5382" y2="305.732" gradientUnits="userSpaceOnUse">
<stop stop-color="#AA80F9"/>
<stop offset="0.9964" stop-color="#6165D7"/>
</linearGradient>
<linearGradient id="paint23_linear" x1="289.467" y1="158.221" x2="130.696" y2="259.06" gradientUnits="userSpaceOnUse">
<stop stop-color="#AA80F9"/>
<stop offset="0.9964" stop-color="#6165D7"/>
</linearGradient>
<linearGradient id="paint24_linear" x1="49.8627" y1="211.747" x2="164.824" y2="211.747" gradientUnits="userSpaceOnUse">
<stop stop-color="#AA80F9"/>
<stop offset="0.9964" stop-color="#6165D7"/>
</linearGradient>
<linearGradient id="paint25_linear" x1="177.195" y1="220.302" x2="232.935" y2="220.302" gradientUnits="userSpaceOnUse">
<stop offset="0.00540541" stop-color="#D8DEE8"/>
<stop offset="1" stop-color="#F4F7FA"/>
</linearGradient>
<linearGradient id="paint26_linear" x1="239.541" y1="263.112" x2="291.635" y2="263.112" gradientUnits="userSpaceOnUse">
<stop stop-color="#444B8C"/>
<stop offset="0.9964" stop-color="#26264F"/>
</linearGradient>
<linearGradient id="paint27_linear" x1="229.944" y1="262.074" x2="206.041" y2="345.249" gradientUnits="userSpaceOnUse">
<stop stop-color="#FF9085"/>
<stop offset="1" stop-color="#FB6FBB"/>
</linearGradient>
<linearGradient id="paint28_linear" x1="293.567" y1="279.812" x2="269.681" y2="362.926" gradientUnits="userSpaceOnUse">
<stop stop-color="#FF9085"/>
<stop offset="1" stop-color="#FB6FBB"/>
</linearGradient>
<linearGradient id="paint29_linear" x1="219.587" y1="216.16" x2="296.196" y2="216.16" gradientUnits="userSpaceOnUse">
<stop stop-color="#444B8C"/>
<stop offset="0.9964" stop-color="#26264F"/>
</linearGradient>
<linearGradient id="paint30_linear" x1="40.0671" y1="381.397" x2="62.5159" y2="381.397" gradientUnits="userSpaceOnUse">
<stop stop-color="#4F52FF"/>
<stop offset="1" stop-color="#4042E2"/>
</linearGradient>
<linearGradient id="paint31_linear" x1="40.0657" y1="376.992" x2="61.8819" y2="376.992" gradientUnits="userSpaceOnUse">
<stop stop-color="#09005D"/>
<stop offset="1" stop-color="#1A0F91"/>
</linearGradient>
<linearGradient id="paint32_linear" x1="42.1394" y1="370.842" x2="48.4627" y2="370.842" gradientUnits="userSpaceOnUse">
<stop stop-color="#FEBBBA"/>
<stop offset="1" stop-color="#FF928E"/>
</linearGradient>
<linearGradient id="paint33_linear" x1="-0.0010507" y1="386.971" x2="8.60161" y2="386.971" gradientUnits="userSpaceOnUse">
<stop stop-color="#4F52FF"/>
<stop offset="1" stop-color="#4042E2"/>
</linearGradient>
<linearGradient id="paint34_linear" x1="0.0613765" y1="378.4" x2="12.6886" y2="378.4" gradientUnits="userSpaceOnUse">
<stop stop-color="#09005D"/>
<stop offset="1" stop-color="#1A0F91"/>
</linearGradient>
<linearGradient id="paint35_linear" x1="6.62505" y1="367.541" x2="14.1821" y2="367.541" gradientUnits="userSpaceOnUse">
<stop stop-color="#FEBBBA"/>
<stop offset="1" stop-color="#FF928E"/>
</linearGradient>
<linearGradient id="paint36_linear" x1="43.6518" y1="252.544" x2="31.3623" y2="351.649" gradientUnits="userSpaceOnUse">
<stop stop-color="#09005D"/>
<stop offset="1" stop-color="#1A0F91"/>
</linearGradient>
<linearGradient id="paint37_linear" x1="23.3618" y1="266.842" x2="42.9153" y2="290.459" gradientUnits="userSpaceOnUse">
<stop stop-color="#09005D"/>
<stop offset="1" stop-color="#1A0F91"/>
</linearGradient>
<linearGradient id="paint38_linear" x1="110.568" y1="208.166" x2="80.5923" y2="247.116" gradientUnits="userSpaceOnUse">
<stop stop-color="#FEBBBA"/>
<stop offset="1" stop-color="#FF928E"/>
</linearGradient>
<linearGradient id="paint39_linear" x1="75.0626" y1="217.298" x2="-25.0052" y2="335.752" gradientUnits="userSpaceOnUse">
<stop stop-color="#4F52FF"/>
<stop offset="1" stop-color="#4042E2"/>
</linearGradient>
<linearGradient id="paint40_linear" x1="-19.84" y1="169.251" x2="56.9654" y2="226.444" gradientUnits="userSpaceOnUse">
<stop stop-color="#4F52FF"/>
<stop offset="1" stop-color="#4042E2"/>
</linearGradient>
<linearGradient id="paint41_linear" x1="43.855" y1="233.363" x2="47.1371" y2="216.152" gradientUnits="userSpaceOnUse">
<stop stop-color="#FEBBBA"/>
<stop offset="1" stop-color="#FF928E"/>
</linearGradient>
<linearGradient id="paint42_linear" x1="52.7149" y1="201.785" x2="34.0156" y2="216.075" gradientUnits="userSpaceOnUse">
<stop stop-color="#FEBBBA"/>
<stop offset="1" stop-color="#FF928E"/>
</linearGradient>
<linearGradient id="paint43_linear" x1="39.5634" y1="190.453" x2="56.9896" y2="212.861" gradientUnits="userSpaceOnUse">
<stop stop-color="#09005D"/>
<stop offset="1" stop-color="#1A0F91"/>
</linearGradient>
<linearGradient id="paint44_linear" x1="50.3978" y1="198.752" x2="31.6982" y2="213.043" gradientUnits="userSpaceOnUse">
<stop stop-color="#FEBBBA"/>
<stop offset="1" stop-color="#FF928E"/>
</linearGradient>
<linearGradient id="paint45_linear" x1="61.3513" y1="245.59" x2="48.253" y2="265.213" gradientUnits="userSpaceOnUse">
<stop stop-color="#FEBBBA"/>
<stop offset="1" stop-color="#FF928E"/>
</linearGradient>
<linearGradient id="paint46_linear" x1="38.4338" y1="269.297" x2="67.5465" y2="278.833" gradientUnits="userSpaceOnUse">
<stop stop-color="#09005D"/>
<stop offset="1" stop-color="#1A0F91"/>
</linearGradient>
<linearGradient id="paint47_linear" x1="78.4943" y1="250.423" x2="99.3588" y2="272.448" gradientUnits="userSpaceOnUse">
<stop stop-color="#09005D"/>
<stop offset="1" stop-color="#1A0F91"/>
</linearGradient>
<linearGradient id="paint48_linear" x1="91.1298" y1="255.934" x2="100.565" y2="270.125" gradientUnits="userSpaceOnUse">
<stop stop-color="#4F52FF"/>
<stop offset="1" stop-color="#4042E2"/>
</linearGradient>
<clipPath id="clip0">
<rect width="398" height="389" fill="white" transform="matrix(-1 0 0 1 398 0)"/>
</clipPath>
</defs>
</svg>
