<svg width="221" height="63" viewBox="0 0 221 63" fill="none" xmlns="http://www.w3.org/2000/svg">
<circle cx="31.5" cy="31.5" r="31.5" fill="#01BDCB"/>
<path d="M19.9158 27.2387H24.1343V39.69H28.5795V27.2387H32.8434V23.7006H19.9158V27.2387Z" fill="black"/>
<path d="M38.9333 34.1334C38.9333 32.1829 39.9539 31.5933 41.791 31.5933H43.0384V26.8531C41.3374 26.8531 39.8859 27.8284 38.9333 29.2119V26.9665H34.488V39.69H38.9333V34.1334Z" fill="black"/>
<path d="M43.9062 33.3169C43.9062 37.3767 46.3103 39.8488 49.3268 39.8488C51.1185 39.8488 52.4113 39.055 53.069 37.921V39.69H57.5143V26.9665H53.069V28.7356C52.4113 27.6016 51.1412 26.8078 49.3268 26.8078C46.3103 26.8078 43.9062 29.2572 43.9062 33.3169ZM53.069 33.3169C53.069 35.0406 52.003 35.9705 50.7556 35.9705C49.4855 35.9705 48.4422 35.0179 48.4422 33.3169C48.4422 31.5933 49.4855 30.6861 50.7556 30.6861C52.003 30.6861 53.069 31.6159 53.069 33.3169Z" fill="black"/>
<path d="M59.3216 33.3169C59.3216 37.3767 61.9751 39.8488 65.7627 39.8488C68.9832 39.8488 71.342 37.9663 71.977 34.8138H67.2596C67.0101 35.6076 66.5111 36.0612 65.672 36.0612C64.5833 36.0612 63.8576 35.154 63.8576 33.3169C63.8576 31.5025 64.5833 30.5953 65.672 30.5953C66.5111 30.5953 67.0101 31.0716 67.2596 31.8427H71.977C71.342 28.6449 68.9832 26.8078 65.7627 26.8078C61.9751 26.8078 59.3216 29.2799 59.3216 33.3169Z" fill="black"/>
<path d="M73.8237 39.69H78.2689V34.4736L81.7843 39.69H87.2049L82.1018 33.3623L87.1141 26.9665H81.7843L78.2689 31.9561V22.9068H73.8237V39.69Z" fill="black"/>
<path d="M88.5081 39.69H92.9533V26.9665H88.5081V39.69ZM90.7534 25.7872C92.3183 25.7872 93.3389 24.7893 93.3389 23.5192C93.3389 22.2264 92.3183 21.2058 90.7534 21.2058C89.1658 21.2058 88.1452 22.2264 88.1452 23.5192C88.1452 24.7893 89.1658 25.7872 90.7534 25.7872Z" fill="black"/>
<path d="M104.149 39.69H108.594V32.2737C108.594 28.9397 106.757 26.8531 103.808 26.8531C102.017 26.8531 100.679 27.6923 99.9301 28.7809V26.9665H95.4848V39.69H99.9301V32.8633C99.9301 31.3891 100.747 30.5273 102.062 30.5273C103.332 30.5273 104.149 31.3891 104.149 32.8633V39.69Z" fill="black"/>
<path d="M110.307 33.3169C110.307 37.3767 112.711 39.8488 115.728 39.8488C117.52 39.8488 118.812 39.055 119.47 37.921V39.5539C119.47 41.5271 118.449 42.0941 117.202 42.0941C116.068 42.0941 115.297 41.6178 115.115 40.8013H110.738C111.056 43.9539 113.505 45.9497 117.474 45.9497C122.056 45.9497 123.915 42.9559 123.915 39.5539V26.9665H119.47V28.7356C118.812 27.6016 117.52 26.8078 115.728 26.8078C112.711 26.8078 110.307 29.2572 110.307 33.3169ZM119.47 33.3169C119.47 35.0406 118.404 35.9705 117.157 35.9705C115.887 35.9705 114.843 35.0179 114.843 33.3169C114.843 31.5933 115.887 30.6861 117.157 30.6861C118.404 30.6861 119.47 31.6159 119.47 33.3169Z" fill="black"/>
<path d="M141.018 23.7006H130.789V39.69H141.018V36.1293H135.235V33.2489H140.338V29.8696H135.235V27.2614H141.018V23.7006Z" fill="black"/>
<path d="M151.153 39.69H156.142L151.652 33.453L155.984 26.9665H151.107L149.27 30.1644L146.98 26.9665H141.99L146.413 33.0901L142.171 39.69H147.048L148.862 36.4921L151.153 39.69Z" fill="black"/>
<path d="M161.901 28.7356V26.9665H157.456V45.7682H161.901V37.921C162.582 39.0323 163.829 39.8488 165.621 39.8488C168.66 39.8488 171.041 37.3767 171.041 33.3169C171.041 29.2572 168.66 26.8078 165.621 26.8078C163.852 26.8078 162.559 27.6016 161.901 28.7356ZM166.528 33.3169C166.528 35.0179 165.462 35.9705 164.215 35.9705C162.967 35.9705 161.901 35.0406 161.901 33.3169C161.901 31.6159 162.967 30.6861 164.215 30.6861C165.462 30.6861 166.528 31.5933 166.528 33.3169Z" fill="black"/>
<path d="M177.317 34.1334C177.317 32.1829 178.337 31.5933 180.174 31.5933H181.422V26.8531C179.721 26.8531 178.269 27.8284 177.317 29.2119V26.9665H172.871V39.69H177.317V34.1334Z" fill="black"/>
<path d="M188.731 30.3232C189.751 30.3232 190.636 30.9355 190.636 32.0695H186.712C186.916 30.9129 187.665 30.3232 188.731 30.3232ZM194.9 35.2901H190.16C189.91 35.8117 189.434 36.288 188.572 36.288C187.574 36.288 186.78 35.6983 186.69 34.2241H195.104C195.149 33.8839 195.172 33.5211 195.172 33.1809C195.172 29.2345 192.518 26.8078 188.753 26.8078C184.943 26.8078 182.29 29.2799 182.29 33.3169C182.29 37.3767 184.989 39.8488 188.753 39.8488C191.929 39.8488 194.31 37.8983 194.9 35.2901Z" fill="black"/>
<path d="M207.696 35.9478C207.673 31.117 200.892 32.5685 200.892 30.7541C200.892 30.2778 201.278 29.983 202.003 29.983C202.956 29.983 203.523 30.4593 203.659 31.2531H207.673C207.379 28.7356 205.564 26.8078 202.094 26.8078C198.647 26.8078 196.81 28.6449 196.81 30.8675C196.81 35.5396 203.568 34.02 203.568 35.8798C203.568 36.3334 203.137 36.6963 202.389 36.6963C201.459 36.6963 200.756 36.2427 200.643 35.4035H196.333C196.515 37.9437 198.874 39.8488 202.412 39.8488C205.7 39.8488 207.696 38.1705 207.696 35.9478Z" fill="black"/>
<path d="M220.586 35.9478C220.564 31.117 213.782 32.5685 213.782 30.7541C213.782 30.2778 214.168 29.983 214.894 29.983C215.846 29.983 216.413 30.4593 216.549 31.2531H220.564C220.269 28.7356 218.455 26.8078 214.984 26.8078C211.537 26.8078 209.7 28.6449 209.7 30.8675C209.7 35.5396 216.459 34.02 216.459 35.8798C216.459 36.3334 216.028 36.6963 215.279 36.6963C214.349 36.6963 213.646 36.2427 213.533 35.4035H209.224C209.405 37.9437 211.764 39.8488 215.302 39.8488C218.591 39.8488 220.586 38.1705 220.586 35.9478Z" fill="black"/>
</svg>
